<?xml version="1.0" encoding="UTF-8"?>
<svg width="162px" height="162px" viewBox="0 0 162 162" version="1.1" xmlns="http://www.w3.org/2000/svg" xmlns:xlink="http://www.w3.org/1999/xlink">
    <!-- Generator: Sketch 52.2 (67145) - http://www.bohemiancoding.com/sketch -->
    <title>Group 2</title>
    <desc>Created with Sketch.</desc>
    <g id="bookfast" stroke="none" stroke-width="1" fill="none" fill-rule="evenodd">
        <g id="Bookfast_old" transform="translate(-164.000000, -3391.000000)">
            <g id="Group-2" transform="translate(165.000000, 3392.000000)">
                <circle id="Oval-Copy" stroke="#BBBBBB" fill-rule="nonzero" cx="80" cy="80" r="80"></circle>
                <g id="coach" transform="translate(44.000000, 44.000000)">
                    <path d="M68.9813962,54.3483871 C67.9364949,48.3096774 63.2924891,43.5483871 57.2552815,42.2709677 L44.3681654,39.483871 C44.2520652,39.483871 44.2520652,39.483871 44.1359651,39.483871 L44.1359651,32.1677419 C47.7350696,29.6129032 49.9409723,25.316129 49.9409723,20.9032258 L49.9409723,13.9354839 C49.9409723,6.27096774 43.6715645,0 36.0089549,0 C28.3463453,0 22.0769374,6.27096774 22.0769374,13.9354839 L22.0769374,20.9032258 C22.0769374,25.4322581 24.2828402,29.6129032 27.8819447,32.1677419 L27.8819447,39.483871 C27.7658445,39.483871 27.7658445,39.483871 27.6497444,39.483871 L14.7626282,42.1548387 C8.72542067,43.4322581 4.08141484,48.1935484 3.03651353,54.2322581 L0.0179097477,70.6064516 C-0.0981903979,71.1870968 0.366210184,71.883871 0.946710912,72 C1.06281106,72 1.06281106,72 1.1789112,72 L70.8389985,72 C71.5355994,72 72,71.5354839 72,70.8387097 C72,70.7225806 72,70.7225806 72,70.6064516 L68.9813962,54.3483871 Z M36.0089549,2.32258065 C41.5817619,2.32258065 46.2257677,6.15483871 47.3867691,11.6129032 L24.6311406,11.6129032 C25.7921421,6.15483871 30.4361479,2.32258065 36.0089549,2.32258065 Z M47.1545688,13.9354839 L43.6715645,17.4193548 L28.3463453,17.4193548 L24.8633409,13.9354839 L47.1545688,13.9354839 Z M24.3989403,20.9032258 L24.3989403,16.7225806 L27.0692437,19.3935484 C27.301444,19.6258065 27.5336442,19.7419355 27.8819447,19.7419355 L44.1359651,19.7419355 C44.4842655,19.7419355 44.7164658,19.6258065 44.9486661,19.3935484 L47.6189694,16.7225806 L47.6189694,20.9032258 C47.6189694,27.2903226 42.3944629,32.516129 36.0089549,32.516129 C29.6234469,32.516129 24.3989403,27.2903226 24.3989403,20.9032258 Z M41.8139622,33.5612903 L41.8139622,41.3419355 L41.0012611,42.1548387 C39.7241595,43.4322581 37.8665572,44.2451613 36.125055,44.2451613 L35.8928547,44.2451613 C34.0352524,44.2451613 32.2937502,43.5483871 31.0166486,42.1548387 L30.2039476,41.3419355 L30.2039476,33.5612903 C32.0615499,34.3741935 34.0352524,34.8387097 36.0089549,34.8387097 C37.9826573,34.8387097 39.9563598,34.3741935 41.8139622,33.5612903 Z M25.5599418,42.3870968 L27.5336442,41.9225806 L29.2751464,43.7806452 C31.0166486,45.5225806 33.3386515,46.4516129 35.8928547,46.4516129 L36.125055,46.4516129 C38.5631581,46.4516129 41.0012611,45.5225806 42.7427633,43.7806452 L44.6003656,41.9225806 L46.5740681,42.3870968 L46.5740681,46.1032258 L40.4207604,54.2322581 C38.3309578,51.7935484 34.7318533,51.5612903 32.2937502,53.6516129 C32.0615499,53.883871 31.9454498,54 31.7132495,54.2322581 L25.5599418,46.1032258 L25.5599418,42.3870968 Z M36.0089549,61.5483871 C34.0352524,61.5483871 32.5259505,60.0387097 32.5259505,58.0645161 C32.5259505,56.0903226 34.0352524,54.5806452 36.0089549,54.5806452 C37.9826573,54.5806452 39.4919592,56.0903226 39.4919592,58.0645161 L39.4919592,65.0322581 L37.1699563,65.0322581 L37.1699563,62.7096774 C37.1699563,62.0129032 36.7055557,61.5483871 36.0089549,61.5483871 Z M17.4329316,69.6774194 L2.57211295,69.6774194 L3.03651353,67.3548387 L17.4329316,67.3548387 L17.4329316,69.6774194 Z M52.2629753,69.7935484 L19.7549345,69.7935484 L19.7549345,54.5806452 L17.4329316,54.5806452 L17.4329316,65.0322581 L3.38481397,65.0322581 L5.2424163,54.6967742 C6.17121746,49.5870968 10.1186224,45.5225806 15.2270288,44.4774194 L23.2379389,42.7354839 L23.2379389,46.4516129 C23.2379389,46.683871 23.354039,46.916129 23.4701392,47.1483871 L30.4361479,56.4387097 C30.3200477,56.9032258 30.2039476,57.483871 30.2039476,58.0645161 C30.2039476,60.8516129 32.1776501,63.1741935 34.8479534,63.7548387 L34.8479534,66.1935484 C34.8479534,66.8903226 35.312354,67.3548387 36.0089549,67.3548387 L40.6529607,67.3548387 C41.3495616,67.3548387 41.8139622,66.8903226 41.8139622,66.1935484 L41.8139622,58.0645161 C41.8139622,57.483871 41.697862,56.9032258 41.5817619,56.4387097 L48.5477706,47.1483871 C48.6638707,46.916129 48.7799709,46.683871 48.7799709,46.4516129 L48.7799709,42.8516129 L56.7908809,44.5935484 C61.8992873,45.6387097 65.8466923,49.7032258 66.7754934,54.8129032 L68.6330958,65.1483871 L54.5849782,65.1483871 L54.5849782,54.6967742 L52.2629753,54.6967742 L52.2629753,69.7935484 Z M54.5849782,69.6774194 L54.5849782,67.3548387 L68.9813962,67.3548387 L69.4457968,69.6774194 L54.5849782,69.6774194 Z" id="Shape" fill="#6E6E6E" fill-rule="nonzero"></path>
                    <rect id="Rectangle" fill="#000000" x="35" y="57" width="2" height="2"></rect>
                </g>
            </g>
        </g>
    </g>
</svg>