<?xml version="1.0" encoding="UTF-8"?>
<svg width="84px" height="38px" viewBox="0 0 84 38" version="1.1" xmlns="http://www.w3.org/2000/svg" xmlns:xlink="http://www.w3.org/1999/xlink">
    <!-- Generator: Sketch 52.2 (67145) - http://www.bohemiancoding.com/sketch -->
    <title>Group 13</title>
    <desc>Created with Sketch.</desc>
    <g id="bookfast" stroke="none" stroke-width="1" fill="none" fill-rule="evenodd">
        <g id="Bookfast-Copy" transform="translate(-827.000000, -8069.000000)">
            <g id="Group-13" transform="translate(828.000000, 8070.000000)">
                <g id="Group-2-Copy-2" transform="translate(46.000000, 0.000000)">
                    <circle id="Oval-Copy" stroke="#BBBBBB" fill-rule="nonzero" cx="18" cy="18" r="18"></circle>
                    <g id="coach" transform="translate(9.900000, 9.900000)">
                        <path d="M15.5208141,12.2283871 C15.2857114,10.8696774 14.24081,9.7983871 12.8824383,9.51096774 L9.9828372,8.88387097 C9.95671467,8.88387097 9.95671467,8.88387097 9.93059214,8.88387097 L9.93059214,7.23774194 C10.7403907,6.66290323 11.2367188,5.69612903 11.2367188,4.70322581 L11.2367188,3.13548387 C11.2367188,1.41096774 9.82610201,0 8.10201485,0 C6.37792768,0 4.96731092,1.41096774 4.96731092,3.13548387 L4.96731092,4.70322581 C4.96731092,5.72225806 5.46363904,6.66290323 6.27343755,7.23774194 L6.27343755,8.88387097 C6.24731502,8.88387097 6.24731502,8.88387097 6.22119249,8.88387097 L3.32159135,9.48483871 C1.96321965,9.77225806 0.91831834,10.8435484 0.683215545,12.2022581 L0.00402969323,15.8864516 C-0.0220928395,16.0170968 0.0823972915,16.173871 0.213009955,16.2 C0.239132488,16.2 0.239132488,16.2 0.265255021,16.2 L15.9387747,16.2 C16.0955099,16.2 16.2,16.0954839 16.2,15.9387097 C16.2,15.9125806 16.2,15.9125806 16.2,15.8864516 L15.5208141,12.2283871 Z M8.10201485,0.522580645 C9.35589642,0.522580645 10.4007977,1.38483871 10.6620231,2.61290323 L5.54200664,2.61290323 C5.80323196,1.38483871 6.84813327,0.522580645 8.10201485,0.522580645 Z M10.609778,3.13548387 L9.82610201,3.91935484 L6.37792768,3.91935484 L5.5942517,3.13548387 L10.609778,3.13548387 Z M5.48976157,4.70322581 L5.48976157,3.76258065 L6.09057982,4.36354839 C6.14282489,4.41580645 6.19506996,4.44193548 6.27343755,4.44193548 L9.93059214,4.44193548 C10.0089597,4.44193548 10.0612048,4.41580645 10.1134499,4.36354839 L10.7142681,3.76258065 L10.7142681,4.70322581 C10.7142681,6.14032258 9.53875415,7.31612903 8.10201485,7.31612903 C6.66527555,7.31612903 5.48976157,6.14032258 5.48976157,4.70322581 Z M9.40814148,7.55129032 L9.40814148,9.30193548 L9.22528375,9.48483871 C8.93793589,9.77225806 8.51997537,9.95516129 8.12813738,9.95516129 L8.07589231,9.95516129 C7.65793179,9.95516129 7.2660938,9.7983871 6.97874594,9.48483871 L6.79588821,9.30193548 L6.79588821,7.55129032 C7.21384873,7.73419355 7.65793179,7.83870968 8.10201485,7.83870968 C8.5460979,7.83870968 8.99018096,7.73419355 9.40814148,7.55129032 Z M5.7509869,9.53709677 L6.19506996,9.43258065 L6.58690795,9.85064516 C6.97874594,10.2425806 7.50119659,10.4516129 8.07589231,10.4516129 L8.12813738,10.4516129 C8.67671057,10.4516129 9.22528375,10.2425806 9.61712175,9.85064516 L10.0350823,9.43258065 L10.4791653,9.53709677 L10.4791653,10.3732258 L9.09467109,12.2022581 C8.6244655,11.6535484 7.81466699,11.6012903 7.2660938,12.0716129 C7.21384873,12.123871 7.1877262,12.15 7.13548113,12.2022581 L5.7509869,10.3732258 L5.7509869,9.53709677 Z M8.10201485,13.8483871 C7.65793179,13.8483871 7.31833886,13.5087097 7.31833886,13.0645161 C7.31833886,12.6203226 7.65793179,12.2806452 8.10201485,12.2806452 C8.5460979,12.2806452 8.88569083,12.6203226 8.88569083,13.0645161 L8.88569083,14.6322581 L8.36324017,14.6322581 L8.36324017,14.1096774 C8.36324017,13.9529032 8.25875004,13.8483871 8.10201485,13.8483871 Z M3.92240961,15.6774194 L0.578725414,15.6774194 L0.683215545,15.1548387 L3.92240961,15.1548387 L3.92240961,15.6774194 Z M11.7591694,15.7035484 L4.44486026,15.7035484 L4.44486026,12.2806452 L3.92240961,12.2806452 L3.92240961,14.6322581 L0.761583143,14.6322581 L1.17954367,12.3067742 C1.38852393,11.1570968 2.27669004,10.2425806 3.42608148,10.0074194 L5.22853624,9.61548387 L5.22853624,10.4516129 C5.22853624,10.503871 5.25465878,10.556129 5.28078131,10.6083871 L6.84813327,12.6987097 C6.82201074,12.8032258 6.79588821,12.933871 6.79588821,13.0645161 C6.79588821,13.6916129 7.23997127,14.2141935 7.84078952,14.3448387 L7.84078952,14.8935484 C7.84078952,15.0503226 7.94527965,15.1548387 8.10201485,15.1548387 L9.14691616,15.1548387 C9.30365135,15.1548387 9.40814148,15.0503226 9.40814148,14.8935484 L9.40814148,13.0645161 C9.40814148,12.933871 9.38201895,12.8032258 9.35589642,12.6987097 L10.9232484,10.6083871 C10.9493709,10.556129 10.9754934,10.503871 10.9754934,10.4516129 L10.9754934,9.6416129 L12.7779482,10.0335484 C13.9273397,10.2687097 14.8155058,11.1832258 15.024486,12.3329032 L15.4424466,14.6583871 L12.2816201,14.6583871 L12.2816201,12.3067742 L11.7591694,12.3067742 L11.7591694,15.7035484 Z M12.2816201,15.6774194 L12.2816201,15.1548387 L15.5208141,15.1548387 L15.6253043,15.6774194 L12.2816201,15.6774194 Z" id="Shape" fill="#6E6E6E" fill-rule="nonzero"></path>
                        <rect id="Rectangle" fill="#000000" x="7.875" y="12.825" width="1" height="1"></rect>
                    </g>
                </g>
                <g id="Group-Copy-5">
                    <circle id="Oval" stroke="#BBBBBB" fill-rule="nonzero" cx="18" cy="18" r="18"></circle>
                    <g id="gym" transform="translate(10.000000, 10.000000)" fill="#6E6E6E">
                        <path d="M6.22222222,7.86669763 L6.22222222,7.45724603 C6.22222222,7.32144544 6.07291667,7.21126761 5.88888889,7.21126761 C5.70486111,7.21126761 5.55555556,7.32144544 5.55555556,7.45724603 L5.55555556,7.86669763 C5.55555556,8.00249822 5.70486111,8.11267606 5.88888889,8.11267606 C6.07291667,8.11267606 6.22222222,8.00249822 6.22222222,7.86669763 Z" id="Path"></path>
                        <path d="M10.4444444,7.86669763 L10.4444444,7.45724603 C10.4444444,7.32144544 10.2951389,7.21126761 10.1111111,7.21126761 C9.92690973,7.21126761 9.77777778,7.32144544 9.77777778,7.45724603 L9.77777778,7.86669763 C9.77777778,8.00249822 9.92690973,8.11267606 10.1111111,8.11267606 C10.2951389,8.11267606 10.4444444,8.00249822 10.4444444,7.86669763 Z" id="Path"></path>
                        <path d="M7.88891397,8.33802817 C8.16802972,8.33802817 8.43004919,8.22763155 8.60794987,8.03508205 C8.69429859,7.94156137 8.68426381,7.79940522 8.58540255,7.71760392 C8.48641745,7.63580263 8.33614338,7.64529533 8.24967078,7.73893322 C8.16220706,7.83362585 8.03063986,7.88800379 7.88891397,7.88800379 C7.7470642,7.88800379 7.61562085,7.83362585 7.52803328,7.73893322 C7.44156065,7.64529533 7.29128662,7.63580263 7.19242536,7.71760392 C7.09356414,7.79940522 7.08340545,7.94156137 7.16987808,8.03508205 C7.34777876,8.22763155 7.60979819,8.33802817 7.88891397,8.33802817 Z" id="Path"></path>
                        <path d="M5.99858847,3.15492958 C6.37339849,3.15492958 6.66666667,2.95918917 6.66666667,2.43322088 L6.66666667,2.11216257 C6.66666667,2.03269268 6.62041258,1.96239243 6.53897937,1.96239243 L6.08273614,1.96239243 C6.00130293,1.96239243 5.95515742,2.05714495 5.95515742,2.14578444 C5.95515742,2.240537 6.00130293,2.32929872 6.08273614,2.32929872 L6.24299673,2.32929872 L6.24299673,2.43322088 C6.24299673,2.64118742 6.15059716,2.73899649 5.99858847,2.73899649 C5.84657978,2.73899649 5.75689467,2.64118742 5.75689467,2.43322088 L5.75689467,1.62299493 C5.75689467,1.41502839 5.84657978,1.31721931 6.00130293,1.31721931 C6.23213897,1.31721931 6.24028229,1.48227211 6.24299673,1.59242958 C6.24571119,1.70246479 6.3407166,1.73608667 6.4548317,1.73608667 C6.59869705,1.73608667 6.66655807,1.69329518 6.66655807,1.50978091 C6.66655807,1.12147887 6.37328989,0.901408451 5.98501627,0.901408451 C5.62931595,0.901408451 5.33333333,1.0970266 5.33333333,1.62299493 L5.33333333,2.43322088 C5.33333333,2.95918917 5.62388708,3.15492958 5.99858847,3.15492958 Z" id="Path"></path>
                        <path d="M7.75064617,2.2865542 C7.75664146,2.29487411 7.7628814,2.30874059 7.7628814,2.32538037 L7.7628814,3.0217003 C7.7628814,3.11055679 7.88217482,3.15492958 8.00146824,3.15492958 C8.12088401,3.15492958 8.24017743,3.11055679 8.24017743,3.0217003 L8.24017743,2.32538037 C8.24017743,2.30862964 8.24629503,2.29476315 8.25241262,2.28644325 L8.88277126,1.33486892 C8.88888889,1.32377572 8.88888889,1.31268253 8.88888889,1.30436262 C8.88888889,1.20163964 8.69618413,1.12676056 8.56453314,1.12676056 C8.48806301,1.12676056 8.45747498,1.15449357 8.4268869,1.20729715 L8.00146824,1.92025686 L7.5731131,1.20729715 C7.53946626,1.15449357 7.51193702,1.12676056 7.43546686,1.12676056 C7.30381587,1.12676056 7.11111111,1.20163964 7.11111111,1.30436262 C7.11111111,1.31268253 7.11111111,1.32377572 7.11722874,1.33486892 L7.75064617,2.2865542 Z" id="Path"></path>
                        <path d="M9.11849597,3.15492958 C9.23324064,3.15492958 9.34810302,3.11044344 9.34810302,3.02169301 L9.34810302,1.95347074 L9.62772702,2.43627303 C9.66303308,2.5000624 9.71893434,2.51670312 9.77189345,2.51670312 C9.82779469,2.51670312 9.88663812,2.49728896 9.92488634,2.43627303 L10.2074525,1.98131619 L10.2074525,3.02169301 C10.2074525,3.11055437 10.3223149,3.15492958 10.4370596,3.15492958 C10.551922,3.15492958 10.6666667,3.11055437 10.6666667,3.02169301 L10.6666667,1.34308973 C10.6666667,1.18500302 10.5548642,1.12676056 10.4370596,1.12676056 C10.2721803,1.12676056 10.2016859,1.14329032 10.0809391,1.34308973 L9.77777778,1.84253271 L9.47461641,1.34308973 C9.35398738,1.14340128 9.28325758,1.12676056 9.11849597,1.12676056 C9.00375127,1.12676056 8.88888889,1.18500302 8.88888889,1.34308973 L8.88888889,3.02169301 C8.88888889,3.11044344 9.00375127,3.15492958 9.11849597,3.15492958 Z" id="Path"></path>
                        <path d="M6.66672535,12.6197183 C6.29914,12.6197183 6,12.9230716 6,13.2958342 C6,13.6685968 6.29914,13.971831 6.66672535,13.971831 C7.03431069,13.971831 7.33333333,13.6685968 7.33333333,13.2958342 C7.33333333,12.9230716 7.03431069,12.6197183 6.66672535,12.6197183 Z M6.66672535,13.5146581 C6.54767984,13.5146581 6.45082328,13.4164373 6.45082328,13.2958342 C6.45082328,13.1751119 6.54767984,13.0768912 6.66672535,13.0768912 C6.78577089,13.0768912 6.88251005,13.1751119 6.88251005,13.2958342 C6.88251005,13.4164373 6.78577089,13.5146581 6.66672535,13.5146581 Z" id="Shape" fill-rule="nonzero"></path>
                        <path d="M9.33339203,13.971831 C9.70097737,13.971831 10,13.6685968 10,13.2958342 C10,12.9230716 9.70097737,12.6197183 9.33339203,12.6197183 C8.96580672,12.6197183 8.66666667,12.9230716 8.66666667,13.2958342 C8.66666667,13.6685968 8.96580672,13.971831 9.33339203,13.971831 Z M9.33339203,13.0768912 C9.45243757,13.0768912 9.54917673,13.1751119 9.54917673,13.2958342 C9.54917673,13.4164373 9.45243757,13.5146581 9.33339203,13.5146581 C9.21434652,13.5146581 9.11748994,13.4165564 9.11748994,13.2958342 C9.11748994,13.1751119 9.21434652,13.0768912 9.33339203,13.0768912 Z" id="Shape" fill-rule="nonzero"></path>
                        <path d="M14.2222222,15.7690084 L14.2222222,14.2555325 C14.2222222,14.1280059 14.1175129,14.024541 13.9884525,14.024541 C13.8592704,14.024541 13.7546828,14.1280059 13.7546828,14.2555325 L13.7546828,15.5380169 L11.9075366,15.5380169 L11.9075366,10.9499471 C11.9075366,10.3695808 11.4297697,9.89749186 10.8424233,9.89749186 L4.93535445,9.89749186 C4.348008,9.89749186 3.87024112,10.3695808 3.87024112,10.9499471 L3.87024112,15.5380169 L2.02309501,15.5380169 L2.02309501,9.01972395 C2.02309501,8.89219736 1.91838563,8.78873239 1.78932528,8.78873239 C1.66026488,8.78873239 1.55555556,8.89219736 1.55555556,9.01972395 L1.55555556,15.7690084 C1.55555556,15.896535 1.66026488,16 1.78932528,16 L13.9884525,16 C14.1175129,16 14.2222222,15.896535 14.2222222,15.7690084 Z M11.4399972,10.9499471 L11.4399972,15.5380169 L8.12265862,15.5380169 L8.12265862,10.359475 L10.8424233,10.359475 C11.1718925,10.359475 11.4399972,10.6243934 11.4399972,10.9499471 Z M4.33778058,10.9499471 C4.33778058,10.6243934 4.60588525,10.359475 4.93535445,10.359475 L7.65511916,10.359475 L7.65511916,15.5380169 L4.33778058,15.5380169 L4.33778058,10.9499471 Z" id="Shape" fill-rule="nonzero"></path>
                        <path d="M14.3786385,6.39365341 C14.6230322,6.299333 14.7970386,6.06347103 14.7970386,5.78746493 L14.7970386,5.55477543 L15.3375741,5.55477543 C15.7028771,5.55477543 16,5.25912432 16,4.8957529 L16,4.23673033 C16,3.87335891 15.7028771,3.5777078 15.3375741,3.5777078 L14.7970386,3.5777078 L14.7970386,3.34514034 C14.7970386,2.98640561 14.5037171,2.69453708 14.1431965,2.69453708 L13.6051135,2.69453708 C13.5414706,2.69453708 13.4801576,2.70405452 13.4220328,2.7208931 C13.4208066,2.36325653 13.1280982,2.07273022 12.7683134,2.07273022 L12.2302304,2.07273022 C12.1667101,2.07273022 12.1055197,2.08224766 12.0473949,2.09908624 L12.0473949,0.812277912 C12.0473949,0.364347569 11.6812336,0 11.2310734,0 L4.76880392,0 C4.31876639,0 3.95260503,0.364347569 3.95260503,0.812277912 L3.95260503,2.09908624 C3.8944803,2.08224766 3.83316728,2.07273022 3.76964698,2.07273022 L3.23156393,2.07273022 C2.87177916,2.07273022 2.57919342,2.36337855 2.57784455,2.72101511 C2.5197198,2.70405452 2.45840678,2.69453708 2.39476386,2.69453708 L1.85680346,2.69453708 C1.49628288,2.69453708 1.2029614,2.98640561 1.2029614,3.34514034 L1.2029614,3.5777078 L0.662303215,3.5777078 C0.297122894,3.5777078 0,3.87335891 0,4.23685237 L0,4.8957529 C0,5.25924636 0.297122894,5.55489744 0.662303215,5.55489744 L1.2029614,5.55489744 L1.2029614,5.78746493 C1.2029614,6.06359307 1.37696776,6.299333 1.62136147,6.39365341 L1.62136147,7.97672291 C1.62136147,8.10606264 1.72681983,8.21099865 1.85680346,8.21099865 C1.98678703,8.21099865 2.09224545,8.10606264 2.09224545,7.97672291 L2.09224545,6.43806819 L2.39488648,6.43806819 C2.41045999,6.43806819 2.57784455,6.42818466 2.5777219,6.41207823 C2.57882556,6.76349184 2.87876883,7.05987505 3.23156393,7.05987505 L3.76964698,7.05987505 C4.12428148,7.05987505 4.42348901,6.76202759 4.42348901,6.4092718 L4.42348901,5.55477543 L11.576511,5.55477543 L11.576511,6.4092718 C11.576511,6.74677527 11.8477598,7.03571535 12.1859624,7.05828882 C12.2006775,7.05926497 12.7683134,7.05975301 12.7683134,7.05975301 C13.1018562,7.06011907 13.4439829,6.76080742 13.4221554,6.41207823 C13.4233817,6.43147917 13.590521,6.43794615 13.6051135,6.43794615 L13.9077546,6.43794615 L13.9077546,13.286851 C13.9077546,13.4163128 14.0130903,13.5211268 14.1431965,13.5211268 C14.2731801,13.5211268 14.3786385,13.4163128 14.3786385,13.286851 L14.3786385,6.39365341 Z M15.3375741,4.04625928 C15.4431551,4.04625928 15.529116,4.13167231 15.529116,4.23673033 L15.529116,4.8957529 C15.529116,5.00081092 15.4431551,5.08622395 15.3375741,5.08622395 L14.7970386,5.08622395 L14.7970386,4.04625928 L15.3375741,4.04625928 Z M12.230353,2.5412817 L12.768436,2.5412817 C12.8692347,2.5412817 12.9512715,2.62291215 12.9512715,2.72333348 L12.9512715,6.4092718 C12.9512715,6.50749677 12.8672726,6.59120153 12.768436,6.59120153 C12.768436,6.59120153 12.2309661,6.59120153 12.230353,6.59120153 C12.1313938,6.59120153 12.0473949,6.50749677 12.0473949,6.4092718 L12.0473949,2.72333348 C12.0473949,2.62291215 12.1294318,2.5412817 12.230353,2.5412817 Z M4.42348901,0.812277912 C4.42348901,0.622783011 4.5783657,0.468551481 4.76880392,0.468551481 L11.2310734,0.468551481 C11.4215117,0.468551481 11.576511,0.622783011 11.576511,0.812277912 L11.576511,3.5777078 L4.42348901,3.5777078 L4.42348901,0.812277912 Z M3.04860588,2.72333348 C3.04860588,2.62291215 3.13076534,2.5412817 3.23156393,2.5412817 L3.76964698,2.5412817 C3.87056821,2.5412817 3.95260503,2.62291215 3.95260503,2.72333348 L3.95260503,6.4092718 C3.95260503,6.50835091 3.86921932,6.59132357 3.76964698,6.59132357 C3.76964698,6.59132357 3.23168655,6.59132357 3.23156393,6.59132357 C3.13211424,6.59132357 3.04860588,6.50822887 3.04860588,6.4092718 L3.04860588,2.72333348 Z M0.662303215,5.08622395 C0.556722205,5.08622395 0.47088398,5.00081092 0.47088398,4.8957529 L0.47088398,4.23673033 C0.47088398,4.13167231 0.556722205,4.04625928 0.662303215,4.04625928 L1.2029614,4.04625928 L1.2029614,5.08622395 L0.662303215,5.08622395 Z M1.85680346,5.96939467 C1.75588222,5.96939467 1.67384538,5.88776422 1.67384538,5.78746493 L1.67384538,3.34514034 C1.67384538,3.24471901 1.75588222,3.16308856 1.85680346,3.16308856 L2.39488648,3.16308856 C2.49568509,3.16308856 2.5777219,3.24471901 2.5777219,3.34514034 L2.5777219,5.78746493 C2.5777219,5.88776422 2.49568509,5.96939467 2.39488648,5.96939467 L1.85680346,5.96939467 Z M4.42348901,5.08622395 L4.42348901,4.04625928 L11.576511,4.04625928 L11.576511,5.08622395 L4.42348901,5.08622395 Z M13.6051135,5.96939467 C13.5041923,5.96939467 13.4221554,5.88776422 13.4221554,5.78746493 L13.4221554,3.34514034 C13.4221554,3.24471901 13.5041923,3.16308856 13.6051135,3.16308856 L14.1431965,3.16308856 C14.2439952,3.16308856 14.3261546,3.24471901 14.3261546,3.34514034 L14.3261546,5.78746493 C14.3261546,5.88776422 14.2439952,5.96939467 14.1431965,5.96939467 L13.6051135,5.96939467 Z" id="Shape" fill-rule="nonzero"></path>
                    </g>
                </g>
            </g>
        </g>
    </g>
</svg>