<?xml version="1.0" encoding="UTF-8"?>
<svg width="84px" height="38px" viewBox="0 0 84 38" version="1.1" xmlns="http://www.w3.org/2000/svg" xmlns:xlink="http://www.w3.org/1999/xlink">
    <!-- Generator: Sketch 52.2 (67145) - http://www.bohemiancoding.com/sketch -->
    <title>Group 14</title>
    <desc>Created with Sketch.</desc>
    <g id="bookfast" stroke="none" stroke-width="1" fill="none" fill-rule="evenodd">
        <g id="Bookfast-Copy" transform="translate(-827.000000, -8254.000000)">
            <g id="Group-14" transform="translate(828.000000, 8255.000000)">
                <g id="Group-2-Copy-5" transform="translate(46.000000, 0.000000)">
                    <circle id="Oval-Copy" stroke="#BBBBBB" fill-rule="nonzero" cx="18" cy="18" r="18"></circle>
                    <g id="coach" transform="translate(9.900000, 9.900000)">
                        <path d="M15.5208141,12.2283871 C15.2857114,10.8696774 14.24081,9.7983871 12.8824383,9.51096774 L9.9828372,8.88387097 C9.95671467,8.88387097 9.95671467,8.88387097 9.93059214,8.88387097 L9.93059214,7.23774194 C10.7403907,6.66290323 11.2367188,5.69612903 11.2367188,4.70322581 L11.2367188,3.13548387 C11.2367188,1.41096774 9.82610201,0 8.10201485,0 C6.37792768,0 4.96731092,1.41096774 4.96731092,3.13548387 L4.96731092,4.70322581 C4.96731092,5.72225806 5.46363904,6.66290323 6.27343755,7.23774194 L6.27343755,8.88387097 C6.24731502,8.88387097 6.24731502,8.88387097 6.22119249,8.88387097 L3.32159135,9.48483871 C1.96321965,9.77225806 0.91831834,10.8435484 0.683215545,12.2022581 L0.00402969323,15.8864516 C-0.0220928395,16.0170968 0.0823972915,16.173871 0.213009955,16.2 C0.239132488,16.2 0.239132488,16.2 0.265255021,16.2 L15.9387747,16.2 C16.0955099,16.2 16.2,16.0954839 16.2,15.9387097 C16.2,15.9125806 16.2,15.9125806 16.2,15.8864516 L15.5208141,12.2283871 Z M8.10201485,0.522580645 C9.35589642,0.522580645 10.4007977,1.38483871 10.6620231,2.61290323 L5.54200664,2.61290323 C5.80323196,1.38483871 6.84813327,0.522580645 8.10201485,0.522580645 Z M10.609778,3.13548387 L9.82610201,3.91935484 L6.37792768,3.91935484 L5.5942517,3.13548387 L10.609778,3.13548387 Z M5.48976157,4.70322581 L5.48976157,3.76258065 L6.09057982,4.36354839 C6.14282489,4.41580645 6.19506996,4.44193548 6.27343755,4.44193548 L9.93059214,4.44193548 C10.0089597,4.44193548 10.0612048,4.41580645 10.1134499,4.36354839 L10.7142681,3.76258065 L10.7142681,4.70322581 C10.7142681,6.14032258 9.53875415,7.31612903 8.10201485,7.31612903 C6.66527555,7.31612903 5.48976157,6.14032258 5.48976157,4.70322581 Z M9.40814148,7.55129032 L9.40814148,9.30193548 L9.22528375,9.48483871 C8.93793589,9.77225806 8.51997537,9.95516129 8.12813738,9.95516129 L8.07589231,9.95516129 C7.65793179,9.95516129 7.2660938,9.7983871 6.97874594,9.48483871 L6.79588821,9.30193548 L6.79588821,7.55129032 C7.21384873,7.73419355 7.65793179,7.83870968 8.10201485,7.83870968 C8.5460979,7.83870968 8.99018096,7.73419355 9.40814148,7.55129032 Z M5.7509869,9.53709677 L6.19506996,9.43258065 L6.58690795,9.85064516 C6.97874594,10.2425806 7.50119659,10.4516129 8.07589231,10.4516129 L8.12813738,10.4516129 C8.67671057,10.4516129 9.22528375,10.2425806 9.61712175,9.85064516 L10.0350823,9.43258065 L10.4791653,9.53709677 L10.4791653,10.3732258 L9.09467109,12.2022581 C8.6244655,11.6535484 7.81466699,11.6012903 7.2660938,12.0716129 C7.21384873,12.123871 7.1877262,12.15 7.13548113,12.2022581 L5.7509869,10.3732258 L5.7509869,9.53709677 Z M8.10201485,13.8483871 C7.65793179,13.8483871 7.31833886,13.5087097 7.31833886,13.0645161 C7.31833886,12.6203226 7.65793179,12.2806452 8.10201485,12.2806452 C8.5460979,12.2806452 8.88569083,12.6203226 8.88569083,13.0645161 L8.88569083,14.6322581 L8.36324017,14.6322581 L8.36324017,14.1096774 C8.36324017,13.9529032 8.25875004,13.8483871 8.10201485,13.8483871 Z M3.92240961,15.6774194 L0.578725414,15.6774194 L0.683215545,15.1548387 L3.92240961,15.1548387 L3.92240961,15.6774194 Z M11.7591694,15.7035484 L4.44486026,15.7035484 L4.44486026,12.2806452 L3.92240961,12.2806452 L3.92240961,14.6322581 L0.761583143,14.6322581 L1.17954367,12.3067742 C1.38852393,11.1570968 2.27669004,10.2425806 3.42608148,10.0074194 L5.22853624,9.61548387 L5.22853624,10.4516129 C5.22853624,10.503871 5.25465878,10.556129 5.28078131,10.6083871 L6.84813327,12.6987097 C6.82201074,12.8032258 6.79588821,12.933871 6.79588821,13.0645161 C6.79588821,13.6916129 7.23997127,14.2141935 7.84078952,14.3448387 L7.84078952,14.8935484 C7.84078952,15.0503226 7.94527965,15.1548387 8.10201485,15.1548387 L9.14691616,15.1548387 C9.30365135,15.1548387 9.40814148,15.0503226 9.40814148,14.8935484 L9.40814148,13.0645161 C9.40814148,12.933871 9.38201895,12.8032258 9.35589642,12.6987097 L10.9232484,10.6083871 C10.9493709,10.556129 10.9754934,10.503871 10.9754934,10.4516129 L10.9754934,9.6416129 L12.7779482,10.0335484 C13.9273397,10.2687097 14.8155058,11.1832258 15.024486,12.3329032 L15.4424466,14.6583871 L12.2816201,14.6583871 L12.2816201,12.3067742 L11.7591694,12.3067742 L11.7591694,15.7035484 Z M12.2816201,15.6774194 L12.2816201,15.1548387 L15.5208141,15.1548387 L15.6253043,15.6774194 L12.2816201,15.6774194 Z" id="Shape" fill="#6E6E6E" fill-rule="nonzero"></path>
                        <rect id="Rectangle" fill="#000000" x="7.875" y="12.825" width="1" height="1"></rect>
                    </g>
                </g>
                <g id="Group-2-Copy-4" fill-rule="nonzero">
                    <circle id="Oval-Copy" stroke="#BBBBBB" cx="18" cy="18" r="18"></circle>
                    <g id="woman" transform="translate(11.375000, 8.350000)" fill="#6E6E6E">
                        <path d="M15.3522727,4.33283627 L14.2613636,4.33283627 C14.11075,4.33283627 13.9886364,4.4597035 13.9886364,4.61618018 L13.9886364,4.89952409 C13.9886364,4.74304741 13.8665227,4.61618018 13.7159091,4.61618018 L12.8977273,4.61618018 C12.7538636,4.61586141 12.6345114,4.73167824 12.625,4.88082339 L12.6061818,5.182868 L12.0795455,5.182868 L12.0795455,4.61618018 C12.0795455,4.4597035 11.9574318,4.33283627 11.8068182,4.33283627 L10.7159091,4.33283627 C10.5652955,4.33283627 10.4431818,4.4597035 10.4431818,4.61618018 L10.4431818,6.31624363 C10.4431818,6.47272031 10.5652955,6.59958754 10.7159091,6.59958754 L11.8068182,6.59958754 C11.9574318,6.59958754 12.0795455,6.47272031 12.0795455,6.31624363 L12.0795455,5.74955581 L12.5704545,5.74955581 L12.4215455,8.06759233 C12.3971364,8.36032201 12.1605455,8.5845533 11.8777273,8.58299491 L10.1704545,8.58299491 L10.1704545,8.46144037 C10.1700455,8.35231755 10.1093636,8.25314718 10.0144545,8.20643085 C9.64511364,8.02718041 9.25351136,7.90226116 8.851,7.83525033 C8.80729545,7.82873342 8.76273864,7.83340859 8.72118182,7.84885084 C8.57104545,7.8013199 8.41719318,7.76756655 8.26136364,7.74798041 L8.26136364,6.97501822 C8.34222727,6.9320562 8.42056818,6.88406483 8.49590909,6.83136286 C9.41227273,6.16522133 10.1704545,5.49624636 10.1704545,4.05657596 L10.1704545,3.76614845 C10.169125,2.90460588 9.82586364,2.08181058 9.22163636,1.49174689 C8.15851136,0.464837727 6.54338636,0.36651739 5.37209091,1.25742148 C4.1875,1.03598821 3.05438636,1.85417917 2.84125,3.08491886 C2.81851136,3.21624876 2.80698864,3.34938498 2.80681818,3.48280454 L2.80681818,7.73296318 C2.80681818,7.88943985 2.92893182,8.01630709 3.07954545,8.01630709 C4.12235227,8.01814882 5.12551136,7.60120826 5.87936364,6.85261365 C5.94403409,6.89692156 6.01085227,6.9377585 6.07954545,6.97501822 L6.07954545,7.74798041 C5.92368182,7.76717695 5.76972727,7.8005407 5.61945455,7.84771746 C5.578,7.83231064 5.53351136,7.82763546 5.48990909,7.83411695 C5.08739773,7.90112779 4.69579545,8.02604703 4.32645455,8.20529747 C4.23154545,8.2520138 4.17086364,8.35118417 4.17045455,8.46030699 L4.17045455,8.46965734 C3.13910227,9.67330227 2.55836364,11.221883 2.53409091,12.8331535 C2.53409091,13.6103659 2.56981818,14.5048826 2.79127273,15.0999048 L2.26136364,15.0999048 L2.26136364,14.533217 C2.26136364,14.3767403 2.13925,14.2498731 1.98863636,14.2498731 L0.897727273,14.2498731 C0.747113636,14.2498731 0.625,14.3767403 0.625,14.533217 L0.625,16.2332805 C0.625,16.3897571 0.747113636,16.5166244 0.897727273,16.5166244 L1.98863636,16.5166244 C2.13925,16.5166244 2.26136364,16.3897571 2.26136364,16.2332805 L2.26136364,15.6665926 L3.82054545,15.6665926 C3.51464773,16.2795363 3.35411364,16.9595617 3.35227273,17.65 L3.89772727,17.65 C3.899125,17.1625422 3.99175,16.680043 4.17045455,16.2293136 L4.17045455,16.2332805 C4.17045455,16.3897571 4.29256818,16.5166244 4.44318182,16.5166244 L5.53409091,16.5166244 C5.68470455,16.5166244 5.80681818,16.3897571 5.80681818,16.2332805 L5.80681818,15.0999048 L9.22136364,15.0999048 L9.37845455,15.3039124 C9.89029545,15.9703373 10.1695,16.7974182 10.1704545,17.65 L10.7159091,17.65 C10.7147159,16.66878 10.3933068,15.716957 9.80418182,14.9500159 L9.59554545,14.6791391 L9.49081818,14.3527269 C9.23697727,13.5603911 9.26121591,12.7003007 9.55927273,11.924753 L9.57454545,11.8850848 C9.913,11.7749349 10.1503409,11.4584752 10.1704545,11.0905885 L10.1704545,11.0789714 L13.1265455,10.4210468 C13.6282614,10.3068238 13.9864886,9.84621289 13.9886364,9.31260547 L13.9886364,6.31624363 C13.9886364,6.47272031 14.11075,6.59958754 14.2613636,6.59958754 L15.3522727,6.59958754 C15.5028864,6.59958754 15.625,6.47272031 15.625,6.31624363 L15.625,4.61618018 C15.625,4.4597035 15.5028864,4.33283627 15.3522727,4.33283627 Z M11.5340909,6.03289972 L10.9886364,6.03289972 L10.9886364,4.89952409 L11.5340909,4.89952409 L11.5340909,6.03289972 Z M1.71590909,15.9499365 L1.17045455,15.9499365 L1.17045455,14.8165609 L1.71590909,14.8165609 L1.71590909,15.9499365 Z M3.82927273,14.9803337 L3.84836364,15.1007548 L3.39563636,15.1007548 C3.23990909,14.8754964 3.07954545,14.2901079 3.07954545,12.8331535 C3.10214773,11.5851299 3.48192045,10.3723825 4.17045455,9.34944018 C4.17045455,9.34944018 4.17045455,11.0701877 4.17045455,11.0701877 C3.81072727,11.9168193 3.69127273,14.1195349 3.82927273,14.9803337 Z M7.00681818,1.2214368 C8.30026136,1.13090842 9.43794318,2.10217592 9.60318182,3.4380362 L8.11054545,2.66252392 C8.05825,2.63521665 7.99879545,2.6262559 7.94118182,2.63702297 L4.77263636,3.21787798 C4.99678409,2.10384057 5.91307955,1.28504751 7.00681818,1.2214368 Z M3.35227273,7.4388522 L3.35227273,3.48280454 C3.35336364,2.60525304 3.99655682,1.87249027 4.83754545,1.79067471 C4.40261364,2.34957057 4.16694318,3.04744662 4.17045455,3.76614845 L4.17045455,4.05657596 C4.17045455,5.27212133 4.71181818,5.93769617 5.43154545,6.51685112 C4.85578409,7.05481495 4.1245,7.37910205 3.35227273,7.4388522 Z M4.71590909,4.05657596 L4.71590909,3.80383319 L7.94745455,3.21136107 L9.62363636,4.08207691 C9.61572727,5.13724963 9.15181818,5.66256923 8.18336364,6.36724554 C7.57460227,6.80759739 6.76630682,6.80759739 6.15754545,6.36724554 C5.18090909,5.65661901 4.71590909,5.12988268 4.71590909,4.05657596 Z M5.80681818,8.3764372 C5.98456818,8.32582489 6.16797727,8.30000518 6.35227273,8.299651 C6.50288636,8.299651 6.625,8.17278376 6.625,8.01630709 L6.625,7.1897929 C6.98240909,7.28860909 7.3585,7.28860909 7.71590909,7.1897929 L7.71590909,8.01630709 C7.71590909,8.17278376 7.83802273,8.299651 7.98863636,8.299651 C8.17293182,8.30000518 8.35634091,8.32582489 8.53409091,8.3764372 L8.53409091,8.82978745 L7.17045455,9.13438215 L5.80681818,8.82978745 L5.80681818,8.3764372 Z M4.32290909,14.281891 C4.30617045,13.4346927 4.37667045,12.5880611 4.53318182,11.7564467 C4.60422727,11.8075194 4.68072727,11.8498085 4.76118182,11.8825347 C5.036125,12.6437736 5.04798864,13.480559 4.79472727,14.2498731 L4.44318182,14.2498731 C4.40121591,14.250546 4.36,14.2615256 4.32290909,14.281891 Z M5.26136364,15.9499365 L4.71590909,15.9499365 L4.71590909,14.8165609 L5.26136364,14.8165609 L5.26136364,15.9499365 Z M5.80681818,14.533217 C5.80681818,14.3767403 5.68470455,14.2498731 5.53409091,14.2498731 L5.37045455,14.2498731 C5.576875,13.5094955 5.576875,12.7234995 5.37045455,11.9831218 L8.95954545,11.9831218 C8.70345455,12.8131424 8.70832955,13.7062778 8.97345455,14.533217 L5.80681818,14.533217 Z M9.625,11.0905885 C9.625,11.2444442 9.39181818,11.416434 9.07954545,11.416434 L5.26136364,11.416434 C4.94909091,11.416434 4.71590909,11.2444442 4.71590909,11.0905885 L4.71590909,8.64589725 C4.89294318,8.56996109 5.07529545,8.50812128 5.26136364,8.46087368 L5.26136364,9.05957936 C5.26132955,9.19317601 5.35109091,9.30863866 5.47681818,9.3366897 L7.11318182,9.70248669 C7.15092045,9.71105784 7.18998864,9.71105784 7.22772727,9.70248669 L8.86409091,9.3366897 C8.98981818,9.30863866 9.07957955,9.19317601 9.07954545,9.05957936 L9.07954545,8.46059034 C9.26561364,8.50783793 9.44796591,8.56967774 9.625,8.64561391 L9.625,11.0905885 Z M13.012,9.86682616 L10.1704545,10.4992498 L10.1704545,9.14968272 L11.8777273,9.14968272 C12.4451705,9.15148904 12.9185568,8.69966176 12.9648182,8.11207733 L13.153,5.182868 L13.4431818,5.182868 L13.4431818,9.31260547 C13.4421932,9.57948002 13.2629773,9.80987403 13.012,9.86682616 Z M15.0795455,6.03289972 L14.5340909,6.03289972 L14.5340909,4.89952409 L15.0795455,4.89952409 L15.0795455,6.03289972 Z" id="Shape"></path>
                    </g>
                </g>
            </g>
        </g>
    </g>
</svg>