<?xml version="1.0" encoding="UTF-8"?>
<svg width="162px" height="162px" viewBox="0 0 162 162" version="1.1" xmlns="http://www.w3.org/2000/svg" xmlns:xlink="http://www.w3.org/1999/xlink">
    <!-- Generator: Sketch 52.2 (67145) - http://www.bohemiancoding.com/sketch -->
    <title>Group</title>
    <desc>Created with Sketch.</desc>
    <g id="bookfast" stroke="none" stroke-width="1" fill="none" fill-rule="evenodd">
        <g id="Bookfast_old" transform="translate(-164.000000, -3181.000000)">
            <g id="Group" transform="translate(165.000000, 3182.000000)">
                <circle id="Oval" stroke="#91C422" fill-rule="nonzero" cx="80" cy="80" r="80"></circle>
                <g id="gym" transform="translate(44.000000, 45.000000)" fill="#91C422">
                    <path d="M28,34.9084707 L28,33.0915293 C28,32.4889142 27.328125,32 26.5,32 C25.671875,32 25,32.4889142 25,33.0915293 L25,34.9084707 C25,35.5110858 25.671875,36 26.5,36 C27.328125,36 28,35.5110858 28,34.9084707 Z" id="Path"></path>
                    <path d="M47,34.9084707 L47,33.0915293 C47,32.4889142 46.328125,32 45.5,32 C44.6710938,32 44,32.4889142 44,33.0915293 L44,34.9084707 C44,35.5110858 44.6710938,36 45.5,36 C46.328125,36 47,35.5110858 47,34.9084707 Z" id="Path"></path>
                    <path d="M35.5001129,37 C36.7561338,37 37.9352213,36.510115 38.7357744,35.6556766 C39.1243436,35.2406786 39.0791871,34.6098606 38.6343115,34.2468674 C38.1888785,33.8838742 37.5126452,33.925998 37.1235185,34.3415162 C36.7299318,34.7617147 36.1378794,35.0030168 35.5001129,35.0030168 C34.8617889,35.0030168 34.2702938,34.7617147 33.8761498,34.3415162 C33.4870229,33.925998 32.8107898,33.8838742 32.3659141,34.2468674 C31.9210386,34.6098606 31.8753245,35.2406786 32.2644513,35.6556766 C33.0650044,36.510115 34.2440918,37 35.5001129,37 Z" id="Path"></path>
                    <path d="M26.9936481,14 C28.6802932,14 30,13.1314019 30,10.7974176 L30,9.37272139 C30,9.02007375 29.7918566,8.70811639 29.4254072,8.70811639 L27.3723126,8.70811639 C27.0058632,8.70811639 26.7982084,9.12858069 26.7982084,9.52191847 C26.7982084,9.94238292 27.0058632,10.3362631 27.3723126,10.3362631 L28.0934853,10.3362631 L28.0934853,10.7974176 C28.0934853,11.7202692 27.6776872,12.1542969 26.9936481,12.1542969 C26.309609,12.1542969 25.906026,11.7202692 25.906026,10.7974176 L25.906026,7.20204 C25.906026,6.27918847 26.309609,5.84516069 27.0058632,5.84516069 C28.0446253,5.84516069 28.0812703,6.5775825 28.0934853,7.06640625 C28.1057004,7.5546875 28.5332247,7.70388458 29.0467426,7.70388458 C29.6941367,7.70388458 29.9995113,7.51399736 29.9995113,6.69965278 C29.9995113,4.9765625 28.6798045,4 26.9325732,4 C25.3319218,4 24,4.86805556 24,7.20204 L24,10.7974176 C24,13.1314019 25.3074919,14 26.9936481,14 Z" id="Path"></path>
                    <path d="M34.8779078,10.1465843 C34.9048866,10.1835038 34.9329663,10.2450364 34.9329663,10.3188754 L34.9329663,13.4087951 C34.9329663,13.8030958 35.4697867,14 36.0066071,14 C36.543978,14 37.0807984,13.8030958 37.0807984,13.4087951 L37.0807984,10.3188754 C37.0807984,10.244544 37.1083276,10.1830115 37.1358568,10.1460919 L39.9724707,5.92348083 C40,5.87425477 40,5.82502871 40,5.78810914 C40,5.33227592 39.1328286,5 38.5403992,5 C38.1962836,5 38.0586374,5.12306521 37.9209911,5.35738111 L36.0066071,8.52113981 L34.0790089,5.35738111 C33.9275982,5.12306521 33.8037166,5 33.4596008,5 C32.8671714,5 32,5.33227592 32,5.78810914 C32,5.82502871 32,5.87425477 32.0275293,5.92348083 L34.8779078,10.1465843 Z" id="Path"></path>
                    <path d="M41.0332319,14 C41.5495829,14 42.0664636,13.8025927 42.0664636,13.4087628 L42.0664636,8.66852639 L43.3247716,10.8109616 C43.4836488,11.0940269 43.7352046,11.1678701 43.9735205,11.1678701 C44.2250761,11.1678701 44.4898715,11.0817197 44.6619886,10.8109616 L45.9335364,8.79209059 L45.9335364,13.4087628 C45.9335364,13.803085 46.4504171,14 46.9667681,14 C47.4836488,14 48,13.803085 48,13.4087628 L48,5.95996067 C48,5.2584509 47.4968887,5 46.9667681,5 C46.2248113,5 45.9075863,5.0733508 45.3642261,5.95996067 L44,8.1762389 L42.6357739,5.95996067 C42.0929432,5.07384319 41.7746591,5 41.0332319,5 C40.5168807,5 40,5.2584509 40,5.95996067 L40,13.4087628 C40,13.8025927 40.5168807,14 41.0332319,14 Z" id="Path"></path>
                    <path d="M30.0002641,56 C28.34613,56 27,57.3461301 27,59.0002641 C27,60.6543982 28.34613,62 30.0002641,62 C31.6543981,62 33,60.6543982 33,59.0002641 C33,57.3461301 31.6543981,56 30.0002641,56 Z M30.0002641,59.9712953 C29.4645593,59.9712953 29.0287048,59.5354406 29.0287048,59.0002641 C29.0287048,58.4645592 29.4645593,58.0287047 30.0002641,58.0287047 C30.535969,58.0287047 30.9712952,58.4645592 30.9712952,59.0002641 C30.9712952,59.5354406 30.535969,59.9712953 30.0002641,59.9712953 Z" id="Shape" fill-rule="nonzero"></path>
                    <path d="M42.0002641,62 C43.6543982,62 45,60.6543982 45,59.0002641 C45,57.3461301 43.6543982,56 42.0002641,56 C40.3461303,56 39,57.3461301 39,59.0002641 C39,60.6543982 40.3461303,62 42.0002641,62 Z M42.0002641,58.0287047 C42.535969,58.0287047 42.9712953,58.4645592 42.9712953,59.0002641 C42.9712953,59.5354406 42.535969,59.9712953 42.0002641,59.9712953 C41.4645594,59.9712953 41.0287047,59.535969 41.0287047,59.0002641 C41.0287047,58.4645592 41.4645594,58.0287047 42.0002641,58.0287047 Z" id="Shape" fill-rule="nonzero"></path>
                    <path d="M64,69.974975 L64,63.2589256 C64,62.6930264 63.5288079,62.2339006 62.9480362,62.2339006 C62.3667167,62.2339006 61.8960724,62.6930264 61.8960724,63.2589256 L61.8960724,68.9499499 L53.5839148,68.9499499 L53.5839148,48.5903904 C53.5839148,46.015015 51.4339638,43.9201201 48.7909048,43.9201201 L22.209095,43.9201201 C19.566036,43.9201201 17.416085,46.015015 17.416085,48.5903904 L17.416085,68.9499499 L9.10392756,68.9499499 L9.10392756,40.025025 C9.10392756,39.4591258 8.63273531,39 8.05196378,39 C7.47119197,39 7,39.4591258 7,40.025025 L7,69.974975 C7,70.5408742 7.47119197,71 8.05196378,71 L62.9480362,71 C63.5288079,71 64,70.5408742 64,69.974975 Z M51.4799873,48.5903904 L51.4799873,68.9499499 L36.5519638,68.9499499 L36.5519638,45.9701702 L48.7909048,45.9701702 C50.2735164,45.9701702 51.4799873,47.1457458 51.4799873,48.5903904 Z M19.5200126,48.5903904 C19.5200126,47.1457458 20.7264836,45.9701702 22.209095,45.9701702 L34.4480362,45.9701702 L34.4480362,68.9499499 L19.5200126,68.9499499 L19.5200126,48.5903904 Z" id="Shape" fill-rule="nonzero"></path>
                    <path d="M64.7038734,28.371837 C65.803645,27.9532902 66.5866736,26.9066527 66.5866736,25.6818756 L66.5866736,24.649316 L69.0190836,24.649316 C70.662947,24.649316 72,23.3373641 72,21.7249035 L72,18.8004909 C72,17.1880302 70.662947,15.8760784 69.0190836,15.8760784 L66.5866736,15.8760784 L66.5866736,14.8440602 C66.5866736,13.2521749 65.2667269,11.9570083 63.6443844,11.9570083 L61.2230107,11.9570083 C60.9366176,11.9570083 60.660709,11.9992419 60.3991477,12.0739631 C60.3936295,10.4869509 59.0764419,9.19774035 57.4574104,9.19774035 L55.0360367,9.19774035 C54.7501953,9.19774035 54.4748387,9.23997398 54.2132772,9.31469519 L54.2132772,3.60448323 C54.2132772,1.61679234 52.5655513,0 50.5398304,0 L21.4596177,0 C19.4344487,0 17.7867226,1.61679234 17.7867226,3.60448323 L17.7867226,9.31469519 C17.5251613,9.23997398 17.2492528,9.19774035 16.9634114,9.19774035 L14.5420377,9.19774035 C12.9230062,9.19774035 11.6063704,10.4874923 11.6003005,12.0745046 C11.3387391,11.9992419 11.0628305,11.9570083 10.7764374,11.9570083 L8.35561557,11.9570083 C6.73327296,11.9570083 5.41332631,13.2521749 5.41332631,14.8440602 L5.41332631,15.8760784 L2.98036447,15.8760784 C1.33705302,15.8760784 0,17.1880302 0,18.8010324 L0,21.7249035 C0,23.3379057 1.33705302,24.6498574 2.98036447,24.6498574 L5.41332631,24.6498574 L5.41332631,25.6818756 C5.41332631,26.9071942 6.1963549,27.9532902 7.29612661,28.371837 L7.29612661,35.3967079 C7.29612661,35.970653 7.77068923,36.4363065 8.35561557,36.4363065 C8.94054162,36.4363065 9.41510452,35.970653 9.41510452,35.3967079 L9.41510452,28.5689276 L10.7769891,28.5689276 C10.84707,28.5689276 11.6003005,28.5250694 11.5997486,28.4535972 C11.604715,30.0129951 12.9544597,31.3281955 14.5420377,31.3281955 L16.9634114,31.3281955 C18.5592666,31.3281955 19.9057005,30.0064974 19.9057005,28.4411436 L19.9057005,24.649316 L52.0942993,24.649316 L52.0942993,28.4411436 C52.0942993,29.9388153 53.3149189,31.2209869 54.8368307,31.3211566 C54.9030488,31.3254883 57.4574104,31.327654 57.4574104,31.327654 C58.9583531,31.3292784 60.4979229,30.0010829 60.3996995,28.4535972 C60.4052176,28.5396888 61.1573444,28.568386 61.2230107,28.568386 L62.5848955,28.568386 L62.5848955,58.9604014 C62.5848955,59.5348879 63.0589065,60 63.6443844,60 C64.2293106,60 64.7038734,59.5348879 64.7038734,58.9604014 L64.7038734,28.371837 Z M69.0190836,17.9552756 C69.4941982,17.9552756 69.8810221,18.3342959 69.8810221,18.8004909 L69.8810221,21.7249035 C69.8810221,22.1910984 69.4941982,22.5701188 69.0190836,22.5701188 L66.5866736,22.5701188 L66.5866736,17.9552756 L69.0190836,17.9552756 Z M55.0365885,11.2769376 L57.4579622,11.2769376 C57.9115559,11.2769376 58.2807216,11.6391727 58.2807216,12.0847923 L58.2807216,28.4411436 C58.2807216,28.8770169 57.9027269,29.2484568 57.4579622,29.2484568 C57.4579622,29.2484568 55.0393476,29.2484568 55.0365885,29.2484568 C54.591272,29.2484568 54.2132772,28.8770169 54.2132772,28.4411436 L54.2132772,12.0847923 C54.2132772,11.6391727 54.5824429,11.2769376 55.0365885,11.2769376 Z M19.9057005,3.60448323 C19.9057005,2.76359961 20.6026456,2.0791972 21.4596177,2.0791972 L50.5398304,2.0791972 C51.3968024,2.0791972 52.0942993,2.76359961 52.0942993,3.60448323 L52.0942993,15.8760784 L19.9057005,15.8760784 L19.9057005,3.60448323 Z M13.7187265,12.0847923 C13.7187265,11.6391727 14.0884441,11.2769376 14.5420377,11.2769376 L16.9634114,11.2769376 C17.417557,11.2769376 17.7867226,11.6391727 17.7867226,12.0847923 L17.7867226,28.4411436 C17.7867226,28.8808072 17.4114869,29.2489983 16.9634114,29.2489983 C16.9634114,29.2489983 14.5425895,29.2489983 14.5420377,29.2489983 C14.0945141,29.2489983 13.7187265,28.8802656 13.7187265,28.4411436 L13.7187265,12.0847923 Z M2.98036447,22.5701188 C2.50524992,22.5701188 2.11897791,22.1910984 2.11897791,21.7249035 L2.11897791,18.8004909 C2.11897791,18.3342959 2.50524992,17.9552756 2.98036447,17.9552756 L5.41332631,17.9552756 L5.41332631,22.5701188 L2.98036447,22.5701188 Z M8.35561557,26.4891888 C7.90147001,26.4891888 7.53230422,26.1269537 7.53230422,25.6818756 L7.53230422,14.8440602 C7.53230422,14.3984406 7.90147001,14.0362055 8.35561557,14.0362055 L10.7769891,14.0362055 C11.2305829,14.0362055 11.5997486,14.3984406 11.5997486,14.8440602 L11.5997486,25.6818756 C11.5997486,26.1269537 11.2305829,26.4891888 10.7769891,26.4891888 L8.35561557,26.4891888 Z M19.9057005,22.5701188 L19.9057005,17.9552756 L52.0942993,17.9552756 L52.0942993,22.5701188 L19.9057005,22.5701188 Z M61.2230107,26.4891888 C60.7688652,26.4891888 60.3996995,26.1269537 60.3996995,25.6818756 L60.3996995,14.8440602 C60.3996995,14.3984406 60.7688652,14.0362055 61.2230107,14.0362055 L63.6443844,14.0362055 C64.0979782,14.0362055 64.4676956,14.3984406 64.4676956,14.8440602 L64.4676956,25.6818756 C64.4676956,26.1269537 64.0979782,26.4891888 63.6443844,26.4891888 L61.2230107,26.4891888 Z" id="Shape" fill-rule="nonzero"></path>
                </g>
            </g>
        </g>
    </g>
</svg>