<?xml version="1.0" encoding="UTF-8"?>
<svg width="162px" height="162px" viewBox="0 0 162 162" version="1.1" xmlns="http://www.w3.org/2000/svg" xmlns:xlink="http://www.w3.org/1999/xlink">
    <!-- Generator: Sketch 52.2 (67145) - http://www.bohemiancoding.com/sketch -->
    <title>Group 2 Copy</title>
    <desc>Created with Sketch.</desc>
    <g id="bookfast" stroke="none" stroke-width="1" fill="none" fill-rule="evenodd">
        <g id="Bookfast_old" transform="translate(-164.000000, -3601.000000)" fill-rule="nonzero">
            <g id="Group-2-Copy" transform="translate(165.000000, 3602.000000)">
                <circle id="Oval-Copy" stroke="#BBBBBB" cx="80" cy="80" r="80"></circle>
                <g id="woman" transform="translate(55.000000, 46.000000)" fill="#6E6E6E">
                    <path d="M58.9090909,14.7313451 L54.5454545,14.7313451 C53.943,14.7313451 53.4545455,15.238814 53.4545455,15.8647207 L53.4545455,16.9980963 C53.4545455,16.3721896 52.9660909,15.8647207 52.3636364,15.8647207 L49.0909091,15.8647207 C48.5154545,15.8634457 48.0380455,16.326713 48,16.9232936 L47.9247273,18.131472 L45.8181818,18.131472 L45.8181818,15.8647207 C45.8181818,15.238814 45.3297273,14.7313451 44.7272727,14.7313451 L40.3636364,14.7313451 C39.7611818,14.7313451 39.2727273,15.238814 39.2727273,15.8647207 L39.2727273,22.6649745 C39.2727273,23.2908812 39.7611818,23.7983502 40.3636364,23.7983502 L44.7272727,23.7983502 C45.3297273,23.7983502 45.8181818,23.2908812 45.8181818,22.6649745 L45.8181818,20.3982233 L47.7818182,20.3982233 L47.1861818,29.6703693 C47.0885455,30.841288 46.1421818,31.7382132 45.0109091,31.7319796 L38.1818182,31.7319796 L38.1818182,31.2457615 C38.1801818,30.8092702 37.9374545,30.4125887 37.5578182,30.2257234 C36.0804545,29.5087216 34.5140455,29.0090447 32.904,28.7410013 C32.7291818,28.7149337 32.5509545,28.7336344 32.3847273,28.7954033 C31.7841818,28.6052796 31.1687727,28.4702662 30.5454545,28.3919216 L30.5454545,25.3000729 C30.8689091,25.1282248 31.1822727,24.9362593 31.4836364,24.7254514 C35.1490909,22.0608853 38.1818182,19.3849854 38.1818182,13.6263038 L38.1818182,12.4645938 C38.1765,9.0184235 36.8034545,5.72724232 34.3865455,3.36698756 C30.1340455,-0.740649092 23.6735455,-1.13393044 18.9883636,2.42968591 C14.25,1.54395285 9.71754545,4.81671667 8.865,9.73967542 C8.77404545,10.264995 8.72795455,10.7975399 8.72727273,11.3312182 L8.72727273,28.3318527 C8.72727273,28.9577594 9.21572727,29.4652283 9.81818182,29.4652283 C13.9894091,29.4725953 18.0020455,27.804833 21.0174545,24.8104546 C21.2761364,24.9876862 21.5434091,25.151034 21.8181818,25.3000729 L21.8181818,28.3919216 C21.1947273,28.4687078 20.5789091,28.6021628 19.9778182,28.7908698 C19.812,28.7292425 19.6340455,28.7105418 19.4596364,28.7364678 C17.8495909,29.0045112 16.2831818,29.5041881 14.8058182,30.2211899 C14.4261818,30.4080552 14.1834545,30.8047367 14.1818182,31.241228 L14.1818182,31.2786294 C10.0564091,36.0932091 7.73345455,42.2875319 7.63636364,48.7326142 C7.63636364,51.8414635 7.77927273,55.4195304 8.66509091,57.7996193 L6.54545455,57.7996193 L6.54545455,55.532868 C6.54545455,54.9069613 6.057,54.3994924 5.45454545,54.3994924 L1.09090909,54.3994924 C0.488454545,54.3994924 0,54.9069613 0,55.532868 L0,62.3331218 C0,62.9590285 0.488454545,63.4664975 1.09090909,63.4664975 L5.45454545,63.4664975 C6.057,63.4664975 6.54545455,62.9590285 6.54545455,62.3331218 L6.54545455,60.0663705 L12.7821818,60.0663705 C11.5585909,62.5181454 10.9164545,65.2382469 10.9090909,68 L13.0909091,68 C13.0965,66.0501689 13.467,64.1201719 14.1818182,62.3172546 L14.1818182,62.3331218 C14.1818182,62.9590285 14.6702727,63.4664975 15.2727273,63.4664975 L19.6363636,63.4664975 C20.2388182,63.4664975 20.7272727,62.9590285 20.7272727,62.3331218 L20.7272727,57.7996193 L34.3854545,57.7996193 L35.0138182,58.6156497 C37.0611818,61.2813492 38.178,64.5896727 38.1818182,68 L40.3636364,68 C40.3588636,64.0751202 39.0732273,60.2678281 36.7167273,57.2000636 L35.8821818,56.1165564 L35.4632727,54.8109077 C34.4479091,51.6415644 34.5448636,48.2012027 35.7370909,45.0990119 L35.7981818,44.9403393 C37.152,44.4997395 38.1013636,43.2339006 38.1818182,41.762354 L38.1818182,41.7158856 L50.0061818,39.0841874 C52.0130455,38.6272953 53.4459545,36.7848516 53.4545455,34.6504219 L53.4545455,22.6649745 C53.4545455,23.2908812 53.943,23.7983502 54.5454545,23.7983502 L58.9090909,23.7983502 C59.5115455,23.7983502 60,23.2908812 60,22.6649745 L60,15.8647207 C60,15.238814 59.5115455,14.7313451 58.9090909,14.7313451 Z M43.6363636,21.5315989 L41.4545455,21.5315989 L41.4545455,16.9980963 L43.6363636,16.9980963 L43.6363636,21.5315989 Z M4.36363636,61.1997462 L2.18181818,61.1997462 L2.18181818,56.6662436 L4.36363636,56.6662436 L4.36363636,61.1997462 Z M12.8170909,57.3213347 L12.8934545,57.8030194 L11.0825455,57.8030194 C10.4596364,56.9019858 9.81818182,54.5604317 9.81818182,48.7326142 C9.90859091,43.7405195 11.4276818,38.8895301 14.1818182,34.7977607 C14.1818182,34.7977607 14.1818182,41.680751 14.1818182,41.680751 C12.7429091,45.0672774 12.2650909,53.8781396 12.8170909,57.3213347 Z M25.5272727,2.2857472 C30.7010455,1.92363369 35.2517727,5.8087037 35.9127273,11.1521448 L29.9421818,8.05009569 C29.733,7.94086661 29.4951818,7.90502361 29.2647273,7.94809188 L16.5905455,10.2715119 C17.4871364,5.81536228 21.1523182,2.54019003 25.5272727,2.2857472 Z M10.9090909,27.1554088 L10.9090909,11.3312182 C10.9134545,7.82101214 13.4862273,4.88996107 16.8501818,4.56269886 C15.1104545,6.7982823 14.1677727,9.58978649 14.1818182,12.4645938 L14.1818182,13.6263038 C14.1818182,18.4884853 16.3472727,21.1507847 19.2261818,23.4674045 C16.9231364,25.6192598 13.998,26.9164082 10.9090909,27.1554088 Z M16.3636364,13.6263038 L16.3636364,12.6153328 L29.2898182,10.2454443 L35.9945455,13.7283076 C35.9629091,17.9489985 34.1072727,20.0502769 30.2334545,22.8689821 C27.7984091,24.6303896 24.5652273,24.6303896 22.1301818,22.8689821 C18.2236364,20.026476 16.3636364,17.9195307 16.3636364,13.6263038 Z M20.7272727,30.9057488 C21.4382727,30.7032996 22.1719091,30.6000207 22.9090909,30.598604 C23.5115455,30.598604 24,30.091135 24,29.4652283 L24,26.1591716 C25.4296364,26.5544364 26.934,26.5544364 28.3636364,26.1591716 L28.3636364,29.4652283 C28.3636364,30.091135 28.8520909,30.598604 29.4545455,30.598604 C30.1917273,30.6000207 30.9253636,30.7032996 31.6363636,30.9057488 L31.6363636,32.7191498 L26.1818182,33.9375286 L20.7272727,32.7191498 L20.7272727,30.9057488 Z M14.7916364,54.5275638 C14.7246818,51.1387707 15.0066818,47.7522442 15.6327273,44.4257868 C15.9169091,44.6300777 16.2229091,44.799234 16.5447273,44.9301389 C17.6445,47.9750942 17.6919545,51.3222358 16.6789091,54.3994924 L15.2727273,54.3994924 C15.1048636,54.4021841 14.94,54.4461024 14.7916364,54.5275638 Z M18.5454545,61.1997462 L16.3636364,61.1997462 L16.3636364,56.6662436 L18.5454545,56.6662436 L18.5454545,61.1997462 Z M20.7272727,55.532868 C20.7272727,54.9069613 20.2388182,54.3994924 19.6363636,54.3994924 L18.9818182,54.3994924 C19.8075,51.4379818 19.8075,48.2939978 18.9818182,45.3324873 L33.3381818,45.3324873 C32.3138182,48.6525695 32.3333182,52.2251112 33.3938182,55.532868 L20.7272727,55.532868 Z M36,41.762354 C36,42.377777 35.0672727,43.065736 33.8181818,43.065736 L18.5454545,43.065736 C17.2963636,43.065736 16.3636364,42.377777 16.3636364,41.762354 L16.3636364,31.983589 C17.0717727,31.6798443 17.8011818,31.4324851 18.5454545,31.2434947 L18.5454545,33.6383174 C18.5453182,34.1727041 18.9043636,34.6345546 19.4072727,34.7467588 L25.9527273,36.2099468 C26.1036818,36.2442314 26.2599545,36.2442314 26.4109091,36.2099468 L32.9563636,34.7467588 C33.4592727,34.6345546 33.8183182,34.1727041 33.8181818,33.6383174 L33.8181818,31.2423613 C34.5624545,31.4313517 35.2918636,31.678711 36,31.9824556 L36,41.762354 Z M49.548,36.8673046 L38.1818182,39.3969991 L38.1818182,33.9987309 L45.0109091,33.9987309 C47.2806818,34.0059562 49.1742273,32.198647 49.3592727,29.8483093 L50.112,18.131472 L51.2727273,18.131472 L51.2727273,34.6504219 C51.2687727,35.7179201 50.5519091,36.6394961 49.548,36.8673046 Z M57.8181818,21.5315989 L55.6363636,21.5315989 L55.6363636,16.9980963 L57.8181818,16.9980963 L57.8181818,21.5315989 Z" id="Shape"></path>
                </g>
            </g>
        </g>
    </g>
</svg>