<?xml version="1.0" encoding="UTF-8"?>
<svg width="56px" height="56px" viewBox="0 0 56 56" version="1.1" xmlns="http://www.w3.org/2000/svg" xmlns:xlink="http://www.w3.org/1999/xlink">
    <!-- Generator: Sketch 52.2 (67145) - http://www.bohemiancoding.com/sketch -->
    <title>Group 12</title>
    <desc>Created with Sketch.</desc>
    <g id="bookfast" stroke="none" stroke-width="1" fill="none" fill-rule="evenodd">
        <g id="finstep" transform="translate(-229.000000, -5479.000000)">
            <g id="Group-6" transform="translate(230.000000, 5480.000000)">
                <g id="Group-12">
                    <g id="Group-17" fill-rule="nonzero" stroke="#C9C9C9">
                        <g id="Oval">
                            <circle cx="27" cy="27" r="27"></circle>
                        </g>
                    </g>
                    <g id="001-edit-tools" transform="translate(13.000000, 13.000000)" fill="#6E6E6E">
                        <path d="M27.3913043,6.08695652 C27.7280486,6.08695652 28,5.81411341 28,5.47826087 L28,0.608695652 C28,0.272843109 27.7280486,0 27.3913043,0 L22.5217391,0 C22.1849949,0 21.9130435,0.272843109 21.9130435,0.608695652 L21.9130435,2.43478261 L6.08695652,2.43478261 L6.08695652,0.608695652 C6.08695652,0.272843109 5.81500508,0 5.47826087,0 L0.608695652,0 C0.271951446,0 0,0.272843109 0,0.608695652 L0,5.47826087 C0,5.81411341 0.271951446,6.08695652 0.608695652,6.08695652 L2.43478261,6.08695652 L2.43478261,21.9130435 L0.608695652,21.9130435 C0.271951446,21.9130435 0,22.1858866 0,22.5217391 L0,27.3913043 C0,27.7271569 0.271951446,28 0.608695652,28 L5.47826087,28 C5.81500508,28 6.08695652,27.7271569 6.08695652,27.3913043 L6.08695652,25.5652174 L21.9130435,25.5652174 L21.9130435,27.3913043 C21.9130435,27.7271569 22.1849949,28 22.5217391,28 L27.3913043,28 C27.7280486,28 28,27.7271569 28,27.3913043 L28,22.5217391 C28,22.1858866 27.7280486,21.9130435 27.3913043,21.9130435 L25.5652174,21.9130435 L25.5652174,6.08695652 L27.3913043,6.08695652 Z M23.1304348,1.2173913 L26.7826087,1.2173913 L26.7826087,4.86956522 L23.1304348,4.86956522 L23.1304348,1.2173913 Z M1.2173913,1.2173913 L4.86956522,1.2173913 L4.86956522,4.86956522 L1.2173913,4.86956522 L1.2173913,1.2173913 Z M4.86956522,26.7826087 L1.2173913,26.7826087 L1.2173913,23.1304348 L4.86956522,23.1304348 L4.86956522,26.7826087 Z M26.7826087,26.7826087 L23.1304348,26.7826087 L23.1304348,23.1304348 L26.7826087,23.1304348 L26.7826087,26.7826087 Z M24.3478261,21.9130435 L22.5217391,21.9130435 C22.1849949,21.9130435 21.9130435,22.1858866 21.9130435,22.5217391 L21.9130435,24.3478261 L6.08695652,24.3478261 L6.08695652,22.5217391 C6.08695652,22.1858866 5.81500508,21.9130435 5.47826087,21.9130435 L3.65217391,21.9130435 L3.65217391,6.08695652 L5.47826087,6.08695652 C5.81500508,6.08695652 6.08695652,5.81411341 6.08695652,5.47826087 L6.08695652,3.65217391 L21.9130435,3.65217391 L21.9130435,5.47826087 C21.9130435,5.81411341 22.1849949,6.08695652 22.5217391,6.08695652 L24.3478261,6.08695652 L24.3478261,21.9130435 Z" id="Shape" fill-rule="nonzero"></path>
                        <path d="M18.3571429,13.8571429 L15.1428571,13.8571429 L15.1428571,10.6428571 C15.1428571,10.2881557 14.8556431,10 14.5,10 C14.1443569,10 13.8571429,10.2881557 13.8571429,10.6428571 L13.8571429,13.8571429 L10.6428571,13.8571429 C10.287214,13.8571429 10,14.1452986 10,14.5 C10,14.8547014 10.287214,15.1428571 10.6428571,15.1428571 L13.8571429,15.1428571 L13.8571429,18.3571429 C13.8571429,18.7118443 14.1443569,19 14.5,19 C14.8556431,19 15.1428571,18.7118443 15.1428571,18.3571429 L15.1428571,15.1428571 L18.3571429,15.1428571 C18.712786,15.1428571 19,14.8547014 19,14.5 C19,14.1452986 18.712786,13.8571429 18.3571429,13.8571429 Z" id="Path"></path>
                    </g>
                </g>
            </g>
        </g>
    </g>
</svg>