<?xml version="1.0" encoding="UTF-8"?>
<svg width="122px" height="122px" viewBox="0 0 122 122" version="1.1" xmlns="http://www.w3.org/2000/svg" xmlns:xlink="http://www.w3.org/1999/xlink">
    <!-- Generator: Sketch 52.2 (67145) - http://www.bohemiancoding.com/sketch -->
    <title>Group 4</title>
    <desc>Created with Sketch.</desc>
    <g id="bookfast" stroke="none" stroke-width="1" fill="none" fill-rule="evenodd">
        <g id="finstep" transform="translate(-317.000000, -966.000000)">
            <g id="Group-4" transform="translate(318.000000, 967.000000)">
                <circle id="Oval" stroke="#BBBBBB" fill-rule="nonzero" cx="60" cy="60" r="60"></circle>
                <g id="002-boy" transform="translate(33.000000, 25.000000)" fill="#6E6E6E">
                    <path d="M21,22 C20.4477333,22 20,22.4376955 20,22.9775808 L20,24.0224192 C20,24.5623045 20.4477333,25 21,25 C21.5522667,25 22,24.5623045 22,24.0224192 L22,22.9775808 C22,22.4376955 21.5522667,22 21,22 Z" id="Path"></path>
                    <path d="M33,22 C32.4476,22 32,22.4376955 32,22.9775808 L32,24.0224192 C32,24.5623045 32.4476,25 33,25 C33.5524,25 34,24.5623045 34,24.0224192 L34,22.9775808 C34,22.4376955 33.5524,22 33,22 Z" id="Path"></path>
                    <path d="M31.7259995,30.2910342 C31.3570385,29.906646 30.7552896,29.902475 30.3812569,30.2817797 C30.0342307,30.6338423 29.2022298,31.0449513 28,31.0449513 C26.7977702,31.0449513 25.9658961,30.6338423 25.6187431,30.2817797 C25.2448372,29.902475 24.642708,29.9067764 24.2740005,30.2910342 C23.9051662,30.6752921 23.9092235,31.2943018 24.2830026,31.6734762 C25.101944,32.5041666 26.4914438,33 28,33 C29.5084295,33 30.8979292,32.5040362 31.7169974,31.6734762 C32.0907765,31.2943018 32.0948338,30.6752921 31.7259995,30.2910342 Z" id="Path"></path>
                    <path d="M48.6091041,50.8798203 L37.1971814,47.4339629 C36.2524576,47.1487148 35.5926098,46.2434648 35.5926098,45.2324082 L35.5926098,40.4443457 C38.9712738,38.0320098 41.3491573,34.2400273 41.9437632,29.8701992 L42.5460685,29.8701992 C44.5204791,29.8701992 46.2139309,28.364084 46.4014168,26.4412598 C46.5065062,25.3636406 46.1631422,24.2876855 45.4593946,23.4892129 C44.8792418,22.8310762 44.0947185,22.4049375 43.2496811,22.2748633 L43.9173633,13.364502 C45.3996908,11.9553184 46.3298264,9.94221875 46.3298264,7.70946289 C46.3298264,3.45847656 42.9608879,0 38.8199883,0 L19.2470246,0 C16.518618,0 13.9039457,1.19105273 12.0732564,3.26794141 C10.2425671,5.34469141 9.34822675,8.13421484 9.61973015,10.9212422 L10.7281664,22.3009336 C9.07915472,22.6158574 7.76270093,23.979002 7.5985832,25.6609531 C7.49349382,26.7385723 7.83685782,27.814666 8.54060544,28.6131387 C9.24475829,29.412166 10.2504015,29.8704766 11.2995392,29.8704766 L12.0556965,29.8704766 C12.6498972,34.2416914 15.0277807,38.0340898 18.4073902,40.4461484 L18.4073902,45.2326855 C18.4073902,46.2437422 17.7475424,47.1489922 16.8028186,47.4342402 L5.39076078,50.8800977 C2.21673746,51.8385977 0,54.8800879 0,58.2765781 L0,69.9599609 C0,70.5343398 0.453586276,71 1.01307239,71 C1.5725585,71 2.02614477,70.5343398 2.02614477,69.9599609 L2.02614477,58.2763008 C2.02614477,55.7961543 3.64476429,53.5753242 5.96253883,52.8754473 L9.29689775,51.8686895 C10.3426586,55.5595801 12.4996923,58.8836836 15.4413844,61.3071133 C18.6783533,63.9736348 22.7511744,65.4420313 26.9094989,65.4420313 C31.067283,65.4420313 35.1395639,63.9739121 38.3762626,61.3082227 C41.3321377,58.8738379 43.4959252,55.530043 44.5364181,51.8183516 L48.0374612,52.8754473 C50.3551006,53.5751855 51.9738552,55.7961543 51.9738552,58.2763008 L51.9738552,69.9599609 C51.9738552,70.5343398 52.4273064,71 52.9869276,71 C53.5465488,71 54,70.5343398 54,69.9599609 L54,58.2763008 C53.9998649,54.8798105 51.7831275,51.8381816 48.6091041,50.8798203 Z M13.9367693,27.7187051 C13.9367693,27.1443262 13.483183,26.678666 12.9236969,26.678666 C12.3642108,26.678666 11.9106245,27.1443262 11.9106245,27.7187051 L11.9106245,27.7902598 L11.2995392,27.7902598 C10.8217743,27.7902598 10.3638656,27.5815586 10.0429243,27.2174063 C9.71779555,26.8485391 9.56569962,26.3694277 9.61473232,25.8681289 C9.6998304,24.9956055 10.5077219,24.3122305 11.4540665,24.3122305 L12.9236969,24.3122305 C14.6764472,24.3122305 16.1023128,22.8482715 16.1023128,21.0490039 L16.1023128,16.1857813 C16.1023128,14.3074707 17.5908538,12.7794453 19.4203275,12.7794453 L23.6609134,12.7794453 C24.2203995,12.7794453 24.6739858,12.3137852 24.6739858,11.7394063 C24.6739858,11.1650273 24.2203995,10.6993672 23.6609134,10.6993672 L19.4203275,10.6993672 C16.4735025,10.6993672 14.076168,13.1606543 14.076168,16.1857813 L14.076168,21.0491426 C14.076168,21.7015938 13.5590959,22.232291 12.9236969,22.232291 L12.7576881,22.232291 L11.6357442,10.7143438 C11.4211079,8.51084766 12.1280974,6.30554883 13.5754401,4.66367383 C15.0227829,3.02179883 17.0899908,2.08007813 19.2470246,2.08007813 L38.8199883,2.08007813 C41.8436717,2.08007813 44.3036816,4.60543164 44.3036816,7.70974023 C44.3036816,10.8140488 41.8436717,13.3394023 38.8199883,13.3394023 C36.851386,13.3394023 35.0232631,12.246668 34.0489577,10.4874766 C33.7724564,9.98825781 33.1540771,9.81366992 32.6675322,10.0973926 C32.1811223,10.3812539 32.0110612,11.0162324 32.2875625,11.5155898 C32.348617,11.625834 32.4129133,11.7334434 32.4786955,11.8398047 C32.1143946,12.0887207 31.6841766,12.2278086 31.2404509,12.2278086 C30.0078795,12.2278086 29.0050729,11.1984473 29.0050729,9.93306641 C29.0050729,9.3586875 28.5516217,8.89302734 27.9920005,8.89302734 C27.4323793,8.89302734 26.9789281,9.3586875 26.9789281,9.93306641 C26.9789281,12.3454023 28.8905281,14.3078867 31.2404509,14.3078867 C32.1651833,14.3078867 33.0610095,13.9951816 33.7927179,13.4339766 C34.9291149,14.4834453 36.3613292,15.1637695 37.897417,15.3598516 L37.897417,21.0491426 C37.897417,22.8485488 39.3234177,24.3123691 41.076033,24.3123691 L42.7000555,24.3123691 C43.1778205,24.3123691 43.6358643,24.5210703 43.9568056,24.8852227 C44.2817992,25.2539512 44.4338952,25.7330625 44.3849975,26.2343613 C44.2998994,27.1068848 43.4921431,27.7903984 42.5457984,27.7903984 L42.088565,27.7903984 L42.088565,27.7295215 C42.088565,27.1552813 41.6352489,26.6896211 41.0758979,26.6894824 C41.0757628,26.6894824 41.0756277,26.6894824 41.0754927,26.6894824 C40.5162767,26.6894824 40.0628255,27.1545879 40.0624203,27.7288281 C40.0571523,35.1180977 34.1972715,41.1298008 26.9997298,41.1298008 C19.7969203,41.1296621 13.9367693,35.1135215 13.9367693,27.7187051 Z M41.7781597,14.795041 L41.2208348,22.232291 L41.076168,22.232291 C40.440634,22.232291 39.9236969,21.7014551 39.9236969,21.0491426 L39.9236969,15.3354453 C40.5723334,15.2368496 41.1942247,15.0529707 41.7781597,14.795041 Z M37.1081661,59.685623 C34.1880863,62.0906094 30.6612436,63.3618145 26.9093638,63.3618145 C23.1568086,63.3618145 19.6295607,62.090332 16.7092107,59.6845137 C14.0895406,57.526502 12.1710516,54.5664121 11.2418617,51.2811367 L13.4545468,50.6130156 C14.2383947,53.3896426 15.8385088,55.8926699 18.0347146,57.741166 C20.5279533,59.8396875 23.6798241,60.9953789 26.9093638,60.9953789 C29.3718051,60.9953789 31.7939936,60.3298926 33.9140164,59.0706133 C34.398265,58.7830078 34.5638686,58.1467812 34.2835852,57.6495039 C34.0033019,57.1523652 33.3835717,56.9824922 32.8993231,57.2700977 C31.0872743,58.3463301 29.016014,58.9151621 26.9093638,58.9151621 C21.5684462,58.9151621 16.8591454,55.2253809 15.39816,50.0260176 L17.3744616,49.4293125 C19.1755692,48.8854414 20.4333999,47.1595312 20.4333999,45.2321309 L20.4333999,41.6639648 C22.4196971,42.653666 24.6476459,43.2096016 26.9998649,43.2096016 C29.3518138,43.2096016 31.5798976,42.65325 33.56633,41.6629941 L33.56633,45.2324082 C33.56633,47.1598086 34.8242957,48.8857187 36.6252683,49.4295898 L38.4356962,49.9762344 C37.9498267,51.7337617 37.0820964,53.3700898 35.8953159,54.7508457 C35.5250717,55.1814219 35.5650543,55.8387266 35.9844662,56.2188262 C36.1772201,56.3932754 36.4161701,56.4789746 36.6544448,56.4789746 C36.9349983,56.4789746 37.214201,56.3599941 37.4143841,56.1270254 C38.7974305,54.5181543 39.8098276,52.6115547 40.3793093,50.5630937 L42.5915892,51.2310762 C41.6678023,54.5370137 39.7418842,57.5165176 37.1081661,59.685623 Z" id="Shape" fill-rule="nonzero"></path>
                    <path d="M22.033256,19 L19.966744,19 C19.4328435,19 19,19.4477333 19,20 C19,20.5522667 19.4328435,21 19.966744,21 L22.033256,21 C22.5671565,21 23,20.5522667 23,20 C23,19.4477333 22.5671565,19 22.033256,19 Z" id="Path"></path>
                    <path d="M34.033256,19 L31.966744,19 C31.4327146,19 31,19.4477333 31,20 C31,20.5522667 31.4328435,21 31.966744,21 L34.033256,21 C34.5672854,21 35,20.5522667 35,20 C35,19.4477333 34.5672854,19 34.033256,19 Z" id="Path"></path>
                </g>
            </g>
        </g>
    </g>
</svg>