<?xml version="1.0" encoding="UTF-8"?>
<svg width="122px" height="122px" viewBox="0 0 122 122" version="1.1" xmlns="http://www.w3.org/2000/svg" xmlns:xlink="http://www.w3.org/1999/xlink">
    <!-- Generator: Sketch 52.2 (67145) - http://www.bohemiancoding.com/sketch -->
    <title>Group 7</title>
    <desc>Created with Sketch.</desc>
    <g id="bookfast" stroke="none" stroke-width="1" fill="none" fill-rule="evenodd">
        <g id="finstep" transform="translate(-659.000000, -966.000000)">
            <g id="Group-7" transform="translate(660.000000, 967.000000)">
                <circle id="Oval" stroke="#BBBBBB" fill-rule="nonzero" cx="60" cy="60" r="60"></circle>
                <g id="001-girl" transform="translate(35.000000, 26.000000)" fill="#6E6E6E">
                    <path d="M19,23 C18.4477333,23 18,23.4376955 18,23.9775808 L18,25.0224192 C18,25.5623045 18.4477333,26 19,26 C19.5522667,26 20,25.5623045 20,25.0224192 L20,23.9775808 C20,23.4376955 19.5522667,23 19,23 Z" id="Path"></path>
                    <path d="M31,23 C30.4476,23 30,23.4376955 30,23.9775808 L30,25.0224192 C30,25.5623045 30.4476,26 31,26 C31.5524,26 32,25.5623045 32,25.0224192 L32,23.9775808 C32,23.4376955 31.5524,23 31,23 Z" id="Path"></path>
                    <path d="M28.726045,31.2909905 C28.3572086,30.9067264 27.7553294,30.902425 27.3812945,31.2817358 C27.0342662,31.6338041 26.2022605,32.0449197 25.0000236,32.0449197 C23.7977867,32.0449197 22.9659077,31.6338041 22.6187526,31.2817358 C22.2448445,30.902425 21.6427117,30.9067264 21.2740021,31.2909905 C20.9051656,31.6753849 20.909223,32.2942742 21.2830043,32.6734548 C22.1019505,33.5041586 23.4914584,34 25.0000236,34 C26.5084619,34 27.8979698,33.5040282 28.7170428,32.6734548 C29.0906974,32.2942742 29.0948815,31.6752546 28.726045,31.2909905 Z" id="Path"></path>
                    <path d="M45.1669225,51.7847891 L43.7331429,51.2689453 L43.7331429,19.0949844 C43.7330126,8.56600781 35.3294279,0 24.9999349,0 C14.6704418,0 6.26672678,8.56600781 6.26672678,19.0949844 L6.26672678,27.2572422 C6.26672678,34.8684609 8.71134437,40.5238828 10.7620765,43.928 C12.0084901,45.9969531 13.2538613,47.5007891 14.1285398,48.4407031 L4.83307752,51.7847891 C1.94219539,52.8247109 0,55.6229375 0,58.74775 L0,67.0039062 C0,67.5540156 0.437534691,68 0.977221616,68 C1.51690854,68 1.95444323,67.5540156 1.95444323,67.0039062 L1.95444323,58.7476172 C1.95444323,58.0846172 2.07496723,57.4420703 2.29660109,56.8449453 L7.23808506,61.1622812 C7.94846003,61.7829141 8.355766,62.6857734 8.355766,63.6393672 L8.355766,67.0039062 C8.355766,67.5540156 8.79330069,68 9.33298761,68 C9.87267454,68 10.3102092,67.5540156 10.3102092,67.0039062 L10.3102092,63.6393672 C10.3102092,62.1035234 9.65403749,60.6493594 8.51003672,59.6496797 L3.33011067,55.1240937 C3.90641083,54.4765 4.63932705,53.9670312 5.48364652,53.6632891 L9.61025796,52.1787109 C12.1644547,58.4890312 18.2529362,62.6767422 25.0000651,62.6767422 C28.7119437,62.6767422 32.2933958,61.4195391 35.2036921,59.1155078 C36.530759,61.4681484 37.6010121,63.8744453 37.6010121,67.0039062 C37.6010121,67.5540156 38.0384165,68 38.5782338,68 C39.118051,68 39.5554554,67.5540156 39.5554554,67.0039062 C39.5554554,62.5726172 37.6941739,59.4354531 35.8940014,56.4014844 C34.0169541,53.2378906 32.2440135,50.2497422 32.2440135,45.7110078 L32.2440135,44.6463828 C32.2440135,44.0962734 31.8066091,43.6502891 31.2667919,43.6502891 C30.7269747,43.6502891 30.2895703,44.0962734 30.2895703,44.6463828 L30.2895703,45.7110078 C30.2895703,48.8787187 31.0626178,51.3791797 32.1120235,53.6008672 C30.1674828,55.4262422 27.6613653,56.4259219 24.9999349,56.4259219 C20.8399676,56.4259219 17.0854821,53.9143047 15.4047913,50.0939531 L16.2708702,49.782375 C18.3281171,49.0422109 19.7102994,47.0509531 19.7102994,44.8272734 L19.7102994,41.4339141 C21.3507287,42.0884141 23.1347445,42.4484687 24.9999349,42.4484687 C32.3373056,42.4484687 38.4270901,36.8808359 39.4148658,29.6728359 L39.995596,29.6728359 C40.635611,29.6728359 41.2447458,29.5093437 41.77883,29.2231328 L41.77883,67.0039062 C41.77883,67.5540156 42.2162344,68 42.7560516,68 C43.2958688,68 43.7332732,67.5540156 43.7332732,67.0039062 L43.7332732,60.3136094 L47.7033989,56.8449453 C47.9251631,57.4420703 48.0455568,58.0846172 48.0455568,58.7476172 L48.0455568,67.0039062 C48.0455568,67.5540156 48.4829612,68 49.0227784,68 C49.5625956,68 50,67.5540156 50,67.0039062 L50,58.7476172 C50,55.6229375 48.0578046,52.8247109 45.1669225,51.7847891 Z M24.9999349,58.4182422 C27.9835879,58.4182422 30.8025465,57.3585312 33.0498956,55.4140234 C33.423064,56.085125 33.810174,56.7390937 34.1951994,57.3880156 C31.5934445,59.5188594 28.3574077,60.6846875 24.9999349,60.6846875 C19.0788839,60.6846875 13.7334817,57.0304844 11.4565553,51.5145156 L13.5578424,50.7585469 C15.518149,55.37325 20.0128472,58.4182422 24.9999349,58.4182422 Z M17.7559865,44.8272734 L17.7558562,44.8272734 C17.7558562,46.0148828 17.1198803,47.0943828 16.1293685,47.665875 C14.5135651,46.0795625 8.93897186,39.8762891 8.28501515,29.3021562 C8.76971707,29.5426797 9.3060163,29.6728359 9.85508455,29.6728359 L10.5844828,29.6728359 C11.2170709,34.2935156 13.9454736,38.239375 17.7559865,40.4772656 L17.7559865,44.8272734 Z M41.7699698,26.1903594 C41.6878832,27.0260156 40.9084513,27.6806484 39.995596,27.6806484 L39.5548039,27.6806484 L39.5548039,27.6223437 C39.5548039,27.0723672 39.1175298,26.6263828 38.5779732,26.62625 C38.5778429,26.62625 38.5777126,26.62625 38.5775823,26.62625 C38.0381559,26.62625 37.6007515,27.0717031 37.6003607,27.6216797 C37.5951488,34.6987266 31.9426384,40.4564141 24.9999349,40.4564141 C18.0517589,40.4564141 12.3989879,34.6944766 12.3989879,27.61225 C12.3989879,27.0621406 11.9614532,26.6161562 11.4217662,26.6161562 C10.8820793,26.6161562 10.4445446,27.0621406 10.4445446,27.61225 L10.4445446,27.6807812 L9.85508455,27.6807812 C9.39422684,27.6807812 8.95252267,27.4807656 8.64293886,27.1321328 C8.32931587,26.7788516 8.18260233,26.3199844 8.22976956,25.84 C8.31198647,25.0043437 9.09141843,24.3497109 10.004404,24.3497109 L10.3771815,24.3497109 L10.3773118,24.3497109 C11.4751877,24.3497109 12.5075246,23.9138203 13.2838295,23.1225234 C14.0602646,22.3312266 14.4878968,21.2789531 14.4878968,20.1597422 L14.4878968,19.0951172 C14.4878968,17.7214375 15.1068038,16.4594531 16.1860474,15.6329609 C16.6175884,15.3025234 16.704496,14.6780391 16.380319,14.2382969 C16.056142,13.7985547 15.4434892,13.7098359 15.0120785,14.0402734 C13.4369275,15.2466094 12.5335838,17.0891172 12.5335838,19.0951172 L12.5335838,20.1597422 C12.5335838,20.7467734 12.3093441,21.2987422 11.9020381,21.7139141 C11.4948624,22.1289531 10.9533513,22.3576562 10.3774421,22.3576562 L10.0045343,22.3576562 C9.364389,22.3576562 8.75525419,22.5211484 8.22117001,22.8074922 L8.22117001,19.09525 C8.22117001,13.8248516 10.5726258,9.10442969 14.2615723,5.96460937 C16.5833205,11.2108359 20.0172773,15.6996328 24.2449986,18.9992266 C28.6662098,22.4496953 33.756492,24.3499766 38.5781035,24.3499766 L40.1446549,24.3499766 C40.6055126,24.3499766 41.047347,24.5498594 41.3569308,24.898625 C41.6704235,25.2515078 41.8171371,25.710375 41.7699698,26.1903594 Z M41.7786997,22.7598125 C41.2774502,22.4985703 40.7178279,22.3575234 40.1445246,22.3575234 L38.5781035,22.3575234 C34.1834727,22.3575234 29.5152199,20.6030703 25.4330395,17.4171641 C21.3568527,14.2359062 18.0623129,9.86717187 15.8721638,4.75136719 C18.5010202,3.00714062 21.6362078,1.9921875 24.9999349,1.9921875 C34.2518782,1.9921875 41.7786997,9.6645 41.7786997,19.0949844 L41.7786997,22.7598125 Z M43.7330126,57.6898984 L43.7330126,53.3815937 L44.5163535,53.6634219 C45.3605427,53.9671641 46.0934589,54.4766328 46.669759,55.1242266 L43.7330126,57.6898984 Z" id="Shape" fill-rule="nonzero"></path>
                    <path d="M20.9505071,19.6685054 C20.7827826,19.1564628 20.238766,18.8797851 19.7358484,19.0503791 L16.6568863,20.0950555 C16.1537126,20.2657798 15.8818963,20.8193958 16.0494929,21.3314384 C16.1836725,21.7410464 16.5583001,22 16.9603269,22 C17.0609616,22 17.1633888,21.9837095 17.2641516,21.9495646 L20.3431137,20.9048882 C20.8462874,20.7341639 21.1181037,20.1806783 20.9505071,19.6685054 Z" id="Path"></path>
                </g>
            </g>
        </g>
    </g>
</svg>