<?xml version="1.0" encoding="UTF-8"?>
<svg width="56px" height="56px" viewBox="0 0 56 56" version="1.1" xmlns="http://www.w3.org/2000/svg" xmlns:xlink="http://www.w3.org/1999/xlink">
    <!-- Generator: Sketch 52.2 (67145) - http://www.bohemiancoding.com/sketch -->
    <title>Group 15</title>
    <desc>Created with Sketch.</desc>
    <g id="bookfast" stroke="none" stroke-width="1" fill="none" fill-rule="evenodd">
        <g id="finstep" transform="translate(-229.000000, -5557.000000)">
            <g id="Group-6" transform="translate(230.000000, 5480.000000)">
                <g id="Group-15" transform="translate(0.000000, 78.000000)">
                    <g id="Group-18" fill-rule="nonzero" stroke="#C9C9C9">
                        <circle id="Oval-Copy-2" cx="27" cy="27" r="27"></circle>
                    </g>
                    <g id="002-alarm-clock" transform="translate(13.000000, 13.000000)" fill="#6E6E6E">
                        <path d="M19.5,13.6315789 L15.929,13.6315789 C15.747,12.9688947 15.1995,12.4502105 14.5,12.2777895 L14.5,7.47368421 C14.5,7.21173684 14.276,7 14,7 C13.724,7 13.5,7.21173684 13.5,7.47368421 L13.5,12.2777895 C12.64,12.4895263 12,13.2246842 12,14.1052632 C12,15.1502105 12.897,16 14,16 C14.929,16 15.7055,15.3936842 15.929,14.5789474 L19.5,14.5789474 C19.776,14.5789474 20,14.3672105 20,14.1052632 C20,13.8433158 19.7765,13.6315789 19.5,13.6315789 Z M14,15.0526316 C13.4485,15.0526316 13,14.6277368 13,14.1052632 C13,13.5827895 13.4485,13.1578947 14,13.1578947 C14.5515,13.1578947 15,13.5827895 15,14.1052632 C15,14.6277368 14.5515,15.0526316 14,15.0526316 Z" id="Shape" fill-rule="nonzero"></path>
                        <path d="M24.1929009,4.70105327 L26.1705019,6.67324707 C26.2612707,6.76376768 26.3839051,6.81432441 26.5118505,6.81432441 C26.6397958,6.81432441 26.7629131,6.76376768 26.8531991,6.67324707 C28.382267,5.14884141 28.382267,2.6677099 26.8531991,1.14330424 C25.3241312,-0.381101414 22.83668,-0.381101414 21.3080949,1.14330424 C21.2173261,1.23382486 21.1666307,1.35564249 21.1666307,1.48371953 C21.1666307,1.61179657 21.2173261,1.7340957 21.3080949,1.82413482 L23.5102037,4.02022269 L22.6899049,4.83827866 C20.3820601,2.77556425 17.3359946,1.51790551 14.0002414,1.51790551 C10.6644883,1.51790551 7.61842275,2.77556425 5.31057791,4.83827866 L4.48979627,4.02022269 L6.69190513,1.82413482 C6.78267392,1.7336142 6.83336926,1.61179657 6.83336926,1.48371953 C6.83336926,1.35564249 6.78267392,1.23334336 6.69190513,1.14330424 C5.16332003,-0.381101414 2.67586885,-0.381101414 1.14680093,1.14330424 C-0.382266978,2.6677099 -0.382266978,5.14884141 1.14680093,6.67324707 C1.23756973,6.76376768 1.36020416,6.81432441 1.48814953,6.81432441 C1.61609491,6.81432441 1.73921215,6.76376768 1.82949813,6.67324707 L3.80709907,4.70105327 L4.61629321,5.50803491 C2.35721245,7.8466446 0.96381491,11.02257 0.96381491,14.5182064 C0.96381491,19.2840205 3.5502427,23.4566356 7.39536327,25.7201324 L5.93340633,27.1780921 C5.74462655,27.3663557 5.74462655,27.670659 5.93340633,27.8589227 C6.02755481,27.9528137 6.15115487,28 6.27475493,28 C6.39835499,28 6.52195505,27.9528137 6.61610353,27.8589227 L8.28180744,26.1977731 C10.0093114,27.0423112 11.9497357,27.5185074 13.9997586,27.5185074 C16.0497814,27.5185074 17.9902058,27.0423112 19.7177097,26.1977731 L21.3834137,27.8589227 C21.4775621,27.9528137 21.6011622,28 21.7247623,28 C21.8483623,28 21.9719624,27.9528137 22.0661109,27.8589227 C22.2548906,27.670659 22.2548906,27.3663557 22.0661109,27.1780921 L20.6041539,25.7201324 C24.4492745,23.4566356 27.0357023,19.2840205 27.0357023,14.5182064 C27.0357023,11.02257 25.6423047,7.8466446 23.383224,5.50803491 L24.1929009,4.70105327 Z M26.1700191,1.82413482 C27.2061352,2.857418 27.3104227,4.47330725 26.4833645,5.62455612 L22.359661,1.5116461 C23.5135834,0.686849233 25.1334201,0.790370147 26.1700191,1.82413482 Z M1.51615267,5.62407463 C0.689094467,4.47330725 0.793382017,2.857418 1.82949813,1.82413482 C2.86561425,0.79085164 4.48593377,0.687330725 5.63985619,1.5116461 L1.51615267,5.62407463 Z M13.9997586,26.5555221 C7.34418512,26.5555221 1.92944037,21.1555823 1.92944037,14.5182064 C1.92944037,7.88083057 7.34418512,2.48089076 13.9997586,2.48089076 C20.6553321,2.48089076 26.0700768,7.88083057 26.0700768,14.5182064 C26.0700768,21.1555823 20.6558149,26.5555221 13.9997586,26.5555221 Z" id="Shape" fill-rule="nonzero"></path>
                        <path d="M13.5,5 C13.776,5 14,4.851 14,4.66666667 L14,4.33333333 C14,4.149 13.776,4 13.5,4 C13.224,4 13,4.149 13,4.33333333 L13,4.66666667 C13,4.85066667 13.224,5 13.5,5 Z" id="Path"></path>
                        <path d="M13.5,24 C13.224,24 13,24.149 13,24.3333333 L13,24.6666667 C13,24.851 13.224,25 13.5,25 C13.776,25 14,24.851 14,24.6666667 L14,24.3333333 C14,24.149 13.7765,24 13.5,24 Z" id="Path"></path>
                        <path d="M24.3333333,15 L24.6666667,15 C24.8506667,15 25,14.7765 25,14.5 C25,14.2235 24.8506667,14 24.6666667,14 L24.3333333,14 C24.1493333,14 24,14.2235 24,14.5 C24,14.7765 24.1493333,15 24.3333333,15 Z" id="Path"></path>
                        <path d="M3.66666667,14 L3.33333333,14 C3.14933333,14 3,14.2235 3,14.5 C3,14.7765 3.14933333,15 3.33333333,15 L3.66666667,15 C3.85066667,15 4,14.7765 4,14.5 C4,14.2235 3.851,14 3.66666667,14 Z" id="Path"></path>
                        <path d="M21.3694367,7.10832025 L21.1083102,7.36947087 C20.9638966,7.51389787 20.9638966,7.74734509 21.1083102,7.89177209 C21.1803324,7.9638009 21.2748846,8 21.3694367,8 C21.4639889,8 21.5585411,7.9638009 21.6305633,7.89177209 L21.8916898,7.63062148 C22.0361034,7.48619448 22.0361034,7.25274725 21.8916898,7.10832025 C21.7472761,6.96389325 21.5134811,6.96389325 21.3694367,7.10832025 Z" id="Path"></path>
                        <path d="M6.36943675,21.1081968 L6.10831025,21.3693835 C5.96389658,21.5138305 5.96389658,21.7473101 6.10831025,21.8917571 C6.18033241,21.9637959 6.27488458,22 6.36943675,22 C6.46398892,22 6.55854109,21.9637959 6.63056325,21.8917571 L6.89168975,21.6305703 C7.03610342,21.4861233 7.03610342,21.2526438 6.89168975,21.1081968 C6.74727608,20.9637498 6.51385042,20.9641192 6.36943675,21.1081968 Z" id="Path"></path>
                        <path d="M21.6305633,21.1083203 C21.4861496,20.9638932 21.2527239,20.9638932 21.1083102,21.1083203 C20.9638966,21.2527473 20.9638966,21.4861945 21.1083102,21.6306215 L21.3694367,21.8917721 C21.4414589,21.9638009 21.5360111,22 21.6305633,22 C21.7251154,22 21.8196676,21.9638009 21.8916898,21.8917721 C22.0361034,21.7473451 22.0361034,21.5138979 21.8916898,21.3694709 L21.6305633,21.1083203 Z" id="Path"></path>
                        <path d="M6.63056325,7.10832025 C6.48614958,6.96389325 6.25272392,6.96389325 6.10831025,7.10832025 C5.96389658,7.25274725 5.96389658,7.48619448 6.10831025,7.63062148 L6.36943675,7.89177209 C6.44145891,7.9638009 6.53601108,8 6.63056325,8 C6.72511542,8 6.81966759,7.9638009 6.89168975,7.89177209 C7.03610342,7.74734509 7.03610342,7.51389787 6.89168975,7.36947087 L6.63056325,7.10832025 Z" id="Path"></path>
                    </g>
                </g>
            </g>
        </g>
    </g>
</svg>