<?xml version="1.0" encoding="UTF-8"?>
<svg width="56px" height="56px" viewBox="0 0 56 56" version="1.1" xmlns="http://www.w3.org/2000/svg" xmlns:xlink="http://www.w3.org/1999/xlink">
    <!-- Generator: Sketch 52.2 (67145) - http://www.bohemiancoding.com/sketch -->
    <title>Group 20</title>
    <desc>Created with Sketch.</desc>
    <g id="bookfast" stroke="none" stroke-width="1" fill="none" fill-rule="evenodd">
        <g id="finstep" transform="translate(-229.000000, -5713.000000)" fill-rule="nonzero">
            <g id="Group-6" transform="translate(230.000000, 5480.000000)">
                <g id="Group-20" transform="translate(0.000000, 234.000000)">
                    <circle id="Oval-Copy-4" stroke="#C9C9C9" cx="27" cy="27" r="27"></circle>
                    <g id="004-reload" transform="translate(15.000000, 13.000000)" fill="#6E6E6E">
                        <path d="M11.8065405,25.1557997 L10.6630459,23.482641 C10.4553001,23.1817686 10.5308982,22.7683651 10.8428144,22.5610711 C11.1452065,22.3543694 11.5511739,22.4390638 11.7595149,22.7399362 L13.6018448,25.4377195 C13.7905423,25.6823264 13.7816134,26.029988 13.5732724,26.2745949 L11.3999779,28.7751528 C11.1636596,29.0475963 10.7481681,29.0760252 10.4648243,28.8408946 C10.1910047,28.5962877 10.1624322,28.1828842 10.3987504,27.9009644 L11.6458203,26.4718204 C11.2303287,26.4623441 10.8237661,26.4250312 10.4082746,26.3681734 C9.75646482,26.283479 9.10465505,26.1425191 8.45225002,25.9358173 C5.28725225,24.957982 2.81156564,22.7962017 1.38532253,20.0883499 C-0.0510400061,17.3810904 -0.437959048,14.1283515 0.544220058,10.9786673 C1.15852844,9.01411254 2.2353539,7.31252499 3.61457147,5.96807537 C5.05093401,4.57683655 6.81766588,3.56168825 8.73559381,3.02568521 C9.08501146,2.92203821 9.45347744,3.1293322 9.55764796,3.47699384 C9.66181847,3.83413178 9.45347744,4.20074602 9.09453563,4.29491672 C7.39387762,4.78353827 5.81584319,5.68615554 4.54972503,6.91748186 C3.31217936,8.11149526 2.35797747,9.61526512 1.81926712,11.3642342 C0.940663261,14.1656644 1.29008092,17.0612654 2.55619908,19.4676525 C3.83184139,21.8740396 6.02358895,23.8012815 8.83916906,24.6754699 C9.42490496,24.854335 10.0106409,24.9763423 10.5868526,25.0610367 C10.9940105,25.1178945 11.3999779,25.1463234 11.8065405,25.1557997 Z M15.2644062,25.9737225 C14.9149885,26.0773695 14.5465226,25.8700755 14.442352,25.5129376 C14.3477057,25.1652759 14.5465226,24.7986617 14.9054644,24.6950147 C16.6156465,24.2152772 18.1841568,23.3132522 19.4592039,22.0724496 C20.6872254,20.8784362 21.6414273,19.3746663 22.1896618,17.6351736 C23.0587415,14.824267 22.7093238,11.9381424 21.4432057,9.52227895 C20.1681586,7.11529956 17.9758158,5.18805769 15.1608309,4.32334561 C14.575095,4.1444805 13.9988833,4.01299688 13.4131474,3.93777878 C13.0065848,3.88151327 12.6006174,3.85308438 12.2035789,3.84360808 L13.3375494,5.51676674 C13.5452951,5.81763916 13.4696971,6.23104261 13.167305,6.42886031 C12.8649129,6.63556203 12.4494213,6.56034393 12.2416756,6.2594715 L10.3993457,3.55221195 C10.2106482,3.30760504 10.2195771,2.9599434 10.4279182,2.72481278 L12.6000221,0.224847226 C12.8363404,-0.0475963082 13.2613561,-0.0760251987 13.5351757,0.159105416 C13.8089953,0.394236032 13.847092,0.817115778 13.6012496,1.08955931 L12.3541797,2.51870333 C12.7696713,2.53765592 13.1762339,2.56549254 13.5917254,2.62235032 C14.2435352,2.71652102 14.895345,2.85748094 15.54775,3.05470637 C18.7222719,4.04201804 21.1884344,6.20379826 22.6146775,8.91165008 C24.05104,11.6189096 24.437959,14.8716485 23.4557799,18.0213327 C22.8414716,19.9858875 21.7646461,21.6779987 20.3854285,23.0224483 C18.949066,24.4130949 17.1823341,25.4282432 15.2644062,25.9737225 Z" id="Shape"></path>
                    </g>
                </g>
            </g>
        </g>
    </g>
</svg>