<?xml version="1.0" encoding="UTF-8"?>
<svg width="56px" height="56px" viewBox="0 0 56 56" version="1.1" xmlns="http://www.w3.org/2000/svg" xmlns:xlink="http://www.w3.org/1999/xlink">
    <!-- Generator: Sketch 52.2 (67145) - http://www.bohemiancoding.com/sketch -->
    <title>Group 16</title>
    <desc>Created with Sketch.</desc>
    <g id="bookfast" stroke="none" stroke-width="1" fill="none" fill-rule="evenodd">
        <g id="finstep" transform="translate(-229.000000, -5635.000000)">
            <g id="Group-6" transform="translate(230.000000, 5480.000000)">
                <g id="Group-16" transform="translate(0.000000, 156.000000)">
                    <g id="Group-19" fill-rule="nonzero" stroke="#C9C9C9">
                        <circle id="Oval-Copy-3" cx="27" cy="27" r="27"></circle>
                    </g>
                    <g id="003-switch" transform="translate(12.000000, 18.000000)" fill="#6E6E6E">
                        <path d="M21,0 L9,0 C4.0375,0 0,4.0375 0,9 C0,13.9625 4.0375,18 9,18 L21,18 C25.9625,18 30,13.9625 30,9 C30,4.0375 25.9625,0 21,0 Z M21,17 L9,17 C4.589,17 1,13.411 1,9 C1,4.589 4.589,1 9,1 L21,1 C25.411,1 29,4.589 29,9 C29,13.411 25.411,17 21,17 Z" id="Shape" fill-rule="nonzero"></path>
                        <path d="M9.5,3 C5.916,3 3,5.916 3,9.5 C3,13.084 5.916,16 9.5,16 C13.084,16 16,13.084 16,9.5 C16,5.916 13.084,3 9.5,3 Z M9.5,15 C6.4675,15 4,12.5325 4,9.5 C4,6.4675 6.4675,4 9.5,4 C12.5325,4 15,6.4675 15,9.5 C15,12.5325 12.5325,15 9.5,15 Z" id="Shape" fill-rule="nonzero"></path>
                        <path d="M24.1464055,6.14662133 L20.5000357,9.79303017 L18.8535945,8.14657134 C18.6581015,7.95107622 18.3421128,7.95107622 18.1466198,8.14657134 C17.9511267,8.34206645 17.9511267,8.65805855 18.1466198,8.85355366 L20.1465483,10.8535037 C20.2440449,10.9510012 20.3720403,11 20.5000357,11 C20.6280311,11 20.7560266,10.9510012 20.8535231,10.8535037 L24.8533802,6.85360366 C25.0488733,6.65810855 25.0488733,6.34211645 24.8533802,6.14662133 C24.6578872,5.95112622 24.3418985,5.95112622 24.1464055,6.14662133 Z" id="Path"></path>
                    </g>
                </g>
            </g>
        </g>
    </g>
</svg>