<svg id="design" xmlns="http://www.w3.org/2000/svg" xmlns:xlink="http://www.w3.org/1999/xlink" viewBox="0 0 105.59 53.66"><defs><style>.cls-1{fill:url(#未命名漸層_57);}.cls-2{fill:#fff;}</style><linearGradient id="未命名漸層_57" x1="29.84" y1="13.57" x2="75.75" y2="40.08" gradientUnits="userSpaceOnUse"><stop offset="0" stop-color="#f8b20e"/><stop offset="0.27" stop-color="#f7ad13"/><stop offset="0.6" stop-color="#f49e23"/><stop offset="0.8" stop-color="#f2922f"/></linearGradient></defs><title>logo-icon</title><ellipse class="cls-1" cx="52.79" cy="26.83" rx="26.4" ry="26.83"/><polygon class="cls-2" points="52.88 43.66 41.25 36.84 41.25 13.29 41.52 13.29 41.52 36.68 52.88 43.35 64.24 36.68 64.24 13.29 64.5 13.29 64.5 36.84 52.88 43.66"/><polygon class="cls-2" points="52.88 44.03 40.93 37.02 40.93 12.97 41.84 12.97 41.84 36.49 52.88 42.97 63.92 36.49 63.92 12.97 64.82 12.97 64.82 37.02 52.88 44.03"/><polygon class="cls-2" points="52.88 39.19 44.63 34.31 44.63 16.58 44.9 16.58 44.9 34.15 52.88 38.88 60.86 34.15 60.86 16.91 51.47 26.71 51.28 26.53 61.12 16.25 61.12 34.31 52.88 39.19"/><polygon class="cls-2" points="52.88 39.56 44.31 34.49 44.31 16.26 45.22 16.26 45.22 33.97 52.88 38.5 60.54 33.97 60.54 17.71 51.48 27.17 50.83 26.53 61.44 15.45 61.44 34.49 52.88 39.56"/><path class="cls-2" d="M64.37,16l-1.65-2.9H66Z"/><path class="cls-2" d="M64.37,16.62l-2.21-3.88h4.41Zm-.64-3,.64,1.13L65,13.66Z"/><polygon class="cls-2" points="52.9 43.5 50.15 41.81 55.65 41.81 52.9 43.5"/><path class="cls-2" d="M52.9,43.88,49,41.48h7.78Zm-1.61-1.75,1.61,1,1.61-1Z"/><polygon class="cls-2" points="54.44 26.6 51.17 23.28 51.36 23.09 54.63 26.41 54.44 26.6"/><polygon class="cls-2" points="54.44 27.06 50.72 23.28 51.36 22.63 55.08 26.41 54.44 27.06"/><path class="cls-2" d="M52.54,16.05v.3a.31.31,0,0,1-.23.08.35.35,0,0,1-.24-.08l-.08-.3a1.17,1.17,0,0,0-1.05-.6,1.15,1.15,0,0,0-1,.6l-.09.3a.35.35,0,0,1-.24.08.34.34,0,0,1-.23-.08l-.09-.3a1.22,1.22,0,0,0-2.1,0l-.08.3a.35.35,0,0,1-.24.08.3.3,0,0,1-.23-.08l-.09-.3a1.16,1.16,0,0,0-1-.6,1.07,1.07,0,0,0-1.14,1v.32h.91v-.3a.41.41,0,0,1,.46,0l.09.3a1.22,1.22,0,0,0,2.1,0l.09-.3a.38.38,0,0,1,.23-.07.42.42,0,0,1,.24.07l.08.3a1.17,1.17,0,0,0,1.05.6,1.15,1.15,0,0,0,1-.6l.09-.3a.42.42,0,0,1,.24-.07.41.41,0,0,1,.23.07l.09.3a1.15,1.15,0,0,0,1.05.6,1.06,1.06,0,0,0,1.13-1v-.33Z"/></svg>